<svg width="81" height="62" viewBox="0 0 81 62" fill="none" xmlns="http://www.w3.org/2000/svg">
<path d="M70.75 0.25H9.25C3.58944 0.25 -1 4.83944 -1 10.5V51.5C-1 57.1606 3.58944 61.75 9.25 61.75H70.75C76.4106 61.75 81 57.1606 81 51.5V10.5C81 4.83944 76.4106 0.25 70.75 0.25ZM53.8785 27.6016L75.5747 9.00846C75.7249 9.48893 75.875 9.9694 75.875 10.5V51.5C75.875 51.8554 75.7398 52.1707 75.6698 52.5059L53.8785 27.6016ZM70.75 5.375C71.0903 5.375 71.3906 5.50521 71.7109 5.57023L40 32.7518L8.28906 5.57023C8.60938 5.50521 8.90967 5.375 9.25 5.375H70.75ZM4.32776 52.501C4.25761 52.1656 4.125 51.8554 4.125 51.5V10.5C4.125 9.9694 4.27763 9.48893 4.42786 9.00846L26.1165 27.5967L4.32776 52.501ZM9.25 56.625C8.73205 56.625 8.26152 56.4748 7.78857 56.3297L30.0103 30.9348L38.3334 38.0667C38.8113 38.4823 39.4069 38.6875 40 38.6875C40.5931 38.6875 41.1887 38.4823 41.6666 38.0669L49.9897 30.935L72.2114 56.3298C71.741 56.4748 71.2705 56.625 70.75 56.625H9.25Z" fill="black"/>
<path d="M70.75 0.25H9.25C3.58944 0.25 -1 4.83944 -1 10.5V51.5C-1 57.1606 3.58944 61.75 9.25 61.75H70.75C76.4106 61.75 81 57.1606 81 51.5V10.5C81 4.83944 76.4106 0.25 70.75 0.25ZM53.8785 27.6016L75.5747 9.00846C75.7249 9.48893 75.875 9.9694 75.875 10.5V51.5C75.875 51.8554 75.7398 52.1707 75.6698 52.5059L53.8785 27.6016ZM70.75 5.375C71.0903 5.375 71.3906 5.50521 71.7109 5.57023L40 32.7518L8.28906 5.57023C8.60938 5.50521 8.90967 5.375 9.25 5.375H70.75ZM4.32776 52.501C4.25761 52.1656 4.125 51.8554 4.125 51.5V10.5C4.125 9.9694 4.27763 9.48893 4.42786 9.00846L26.1165 27.5967L4.32776 52.501ZM9.25 56.625C8.73205 56.625 8.26152 56.4748 7.78857 56.3297L30.0103 30.9348L38.3334 38.0667C38.8113 38.4823 39.4069 38.6875 40 38.6875C40.5931 38.6875 41.1887 38.4823 41.6666 38.0669L49.9897 30.935L72.2114 56.3298C71.741 56.4748 71.2705 56.625 70.75 56.625H9.25Z" fill="url(#paint0_linear_27_661)"/>
<path d="M70.75 0.25H9.25C3.58944 0.25 -1 4.83944 -1 10.5V51.5C-1 57.1606 3.58944 61.75 9.25 61.75H70.75C76.4106 61.75 81 57.1606 81 51.5V10.5C81 4.83944 76.4106 0.25 70.75 0.25ZM53.8785 27.6016L75.5747 9.00846C75.7249 9.48893 75.875 9.9694 75.875 10.5V51.5C75.875 51.8554 75.7398 52.1707 75.6698 52.5059L53.8785 27.6016ZM70.75 5.375C71.0903 5.375 71.3906 5.50521 71.7109 5.57023L40 32.7518L8.28906 5.57023C8.60938 5.50521 8.90967 5.375 9.25 5.375H70.75ZM4.32776 52.501C4.25761 52.1656 4.125 51.8554 4.125 51.5V10.5C4.125 9.9694 4.27763 9.48893 4.42786 9.00846L26.1165 27.5967L4.32776 52.501ZM9.25 56.625C8.73205 56.625 8.26152 56.4748 7.78857 56.3297L30.0103 30.9348L38.3334 38.0667C38.8113 38.4823 39.4069 38.6875 40 38.6875C40.5931 38.6875 41.1887 38.4823 41.6666 38.0669L49.9897 30.935L72.2114 56.3298C71.741 56.4748 71.2705 56.625 70.75 56.625H9.25Z" fill="white"/>
<defs>
<linearGradient id="paint0_linear_27_661" x1="-0.960547" y1="30.9856" x2="81.0985" y2="30.9856" gradientUnits="userSpaceOnUse">
<stop stop-color="#00CFFF"/>
<stop offset="1" stop-color="#00AFD6"/>
</linearGradient>
</defs>
</svg>
