<svg width="38" height="74" viewBox="0 0 38 74" fill="none" xmlns="http://www.w3.org/2000/svg">
<path d="M24.559 73.4942C24.1977 73.5086 23.9664 73.5375 23.7352 73.5375C18.7922 73.5375 13.8637 73.5231 8.9207 73.552C8.22695 73.552 8.03906 73.3641 8.03906 72.6703C8.05352 61.1657 8.05352 49.6465 8.05352 38.1418C8.05352 37.8383 8.05352 37.5348 8.05352 37.1446C5.36524 37.1446 2.74922 37.1446 0.0898438 37.1446C0.0898438 33.0399 0.0898438 29.0075 0.0898438 24.8594C0.364453 24.8594 0.624608 24.8594 0.870312 24.8594C3.03828 24.8594 5.20625 24.845 7.37422 24.8739C7.92344 24.8739 8.06797 24.7149 8.06797 24.1801C8.03906 20.9571 8.03906 17.7196 8.06797 14.4965C8.08242 12.2418 8.44375 10.045 9.48438 8.00707C10.973 5.1309 13.3289 3.26644 16.3062 2.11019C18.7344 1.15629 21.2926 0.809411 23.8652 0.766052C28.0566 0.708239 32.248 0.737146 36.4395 0.722692C36.8297 0.722692 37.1477 0.708239 37.1477 1.25746C37.1332 5.23207 37.1332 9.20668 37.1332 13.1813C37.1332 13.2246 37.1187 13.268 37.0609 13.4559C36.8152 13.4559 36.5406 13.4559 36.266 13.4559C33.6645 13.4559 31.0629 13.4414 28.4613 13.4559C26.9582 13.4559 25.7441 14.0629 24.9781 15.3782C24.7469 15.7684 24.6023 16.2743 24.6023 16.7368C24.559 19.1938 24.6023 21.6508 24.5734 24.1078C24.5734 24.686 24.7469 24.845 25.3105 24.845C28.9238 24.816 32.5371 24.8305 36.1504 24.8305C36.4395 24.8305 36.7141 24.8305 37.2055 24.8305C36.6996 28.9641 36.2082 33.011 35.7023 37.1012C31.9445 37.1012 28.2879 37.1012 24.559 37.1012C24.559 49.2563 24.559 61.3391 24.559 73.4942Z" fill="black"/>
<path d="M24.559 73.4942C24.1977 73.5086 23.9664 73.5375 23.7352 73.5375C18.7922 73.5375 13.8637 73.5231 8.9207 73.552C8.22695 73.552 8.03906 73.3641 8.03906 72.6703C8.05352 61.1657 8.05352 49.6465 8.05352 38.1418C8.05352 37.8383 8.05352 37.5348 8.05352 37.1446C5.36524 37.1446 2.74922 37.1446 0.0898438 37.1446C0.0898438 33.0399 0.0898438 29.0075 0.0898438 24.8594C0.364453 24.8594 0.624608 24.8594 0.870312 24.8594C3.03828 24.8594 5.20625 24.845 7.37422 24.8739C7.92344 24.8739 8.06797 24.7149 8.06797 24.1801C8.03906 20.9571 8.03906 17.7196 8.06797 14.4965C8.08242 12.2418 8.44375 10.045 9.48438 8.00707C10.973 5.1309 13.3289 3.26644 16.3062 2.11019C18.7344 1.15629 21.2926 0.809411 23.8652 0.766052C28.0566 0.708239 32.248 0.737146 36.4395 0.722692C36.8297 0.722692 37.1477 0.708239 37.1477 1.25746C37.1332 5.23207 37.1332 9.20668 37.1332 13.1813C37.1332 13.2246 37.1187 13.268 37.0609 13.4559C36.8152 13.4559 36.5406 13.4559 36.266 13.4559C33.6645 13.4559 31.0629 13.4414 28.4613 13.4559C26.9582 13.4559 25.7441 14.0629 24.9781 15.3782C24.7469 15.7684 24.6023 16.2743 24.6023 16.7368C24.559 19.1938 24.6023 21.6508 24.5734 24.1078C24.5734 24.686 24.7469 24.845 25.3105 24.845C28.9238 24.816 32.5371 24.8305 36.1504 24.8305C36.4395 24.8305 36.7141 24.8305 37.2055 24.8305C36.6996 28.9641 36.2082 33.011 35.7023 37.1012C31.9445 37.1012 28.2879 37.1012 24.559 37.1012C24.559 49.2563 24.559 61.3391 24.559 73.4942Z" fill="url(#paint0_linear_29_46)"/>
<defs>
<linearGradient id="paint0_linear_29_46" x1="18.6477" y1="0.722656" x2="18.6477" y2="73.552" gradientUnits="userSpaceOnUse">
<stop offset="0.338542" stop-color="#015FCD"/>
<stop offset="1" stop-color="#0DD3F1"/>
</linearGradient>
</defs>
</svg>
