<svg width="59" height="75" viewBox="0 0 59 75" fill="none" xmlns="http://www.w3.org/2000/svg">
<path d="M41.9468 20.5375V26.6998C41.9468 27.124 41.7695 27.517 41.4819 27.7288L29.7383 36.3986C29.1189 36.8563 29.1189 37.9998 29.7383 38.4574L41.4825 47.1273C41.7701 47.3398 41.9473 47.7321 41.9473 48.1563V54.3186C41.9473 55.2332 41.1728 55.8053 40.5534 55.3477L17.6739 38.4567C17.0545 37.999 17.0545 36.8556 17.6739 36.3979L40.5528 19.5077C41.1722 19.0508 41.9468 19.6221 41.9468 20.5375Z" fill="white" fill-opacity="0.67"/>
<path d="M41.4819 47.1273L40.1013 46.1079C40.0938 46.1399 40.088 46.1748 40.0828 46.209L40.3204 46.3843C40.608 46.5968 40.7852 46.9891 40.7852 47.4134V53.5756C40.7852 54.3246 40.2658 54.8335 39.7376 54.7458L40.5534 55.3477C41.1728 55.8053 41.9474 55.2332 41.9474 54.3186V48.1563C41.9468 47.7314 41.7696 47.3391 41.4819 47.1273Z" fill="white" fill-opacity="0.67"/>
<path d="M29.7383 36.3986L41.4825 27.7287C41.7701 27.5162 41.9473 27.1239 41.9473 26.6997V20.5374C41.9473 19.7089 41.3128 19.1703 40.7324 19.414C40.7637 19.5329 40.7852 19.6577 40.7852 19.7944V25.9567C40.7852 26.3809 40.608 26.774 40.3204 26.9857L28.5762 35.6556C28.5308 35.6942 28.1433 36.0389 28.1113 36.6846C28.0782 37.3615 28.4652 37.7746 28.5024 37.8124C28.8737 38.1416 29.2444 38.47 29.6157 38.7991C29.5971 38.7159 29.575 38.5673 29.6267 38.4202C29.6331 38.4016 29.6407 38.3838 29.6482 38.3682C29.1276 37.8682 29.1526 36.8302 29.7383 36.3986Z" fill="white" fill-opacity="0.67"/>
<path d="M41.9468 20.5375V26.6998C41.9468 27.124 41.7695 27.517 41.4819 27.7288L29.7383 36.3986C29.1189 36.8563 29.1189 37.9998 29.7383 38.4574L41.4825 47.1273C41.7701 47.3398 41.9473 47.7321 41.9473 48.1563V54.3186C41.9473 55.2332 41.1728 55.8053 40.5534 55.3477L17.6739 38.4567C17.0545 37.999 17.0545 36.8556 17.6739 36.3979L40.5528 19.5077C41.1722 19.0508 41.9468 19.6221 41.9468 20.5375Z" fill="white" fill-opacity="0.67"/>
</svg>
