<svg width="164" height="157" viewBox="0 0 164 157" fill="none" xmlns="http://www.w3.org/2000/svg">
<path d="M41.1681 195.144C38.5636 195.144 35.8621 194.983 33.2292 194.388C28.2107 193.254 24.1711 190.587 22.1446 187.067C20.2719 183.808 20.1984 180.072 20.1382 177.069L18.0316 72.6204C18.0048 71.3133 19.1325 70.2344 20.5492 70.2097C22.0193 70.1419 23.137 71.227 23.1637 72.5341L25.2704 176.983C25.3222 179.609 25.3806 182.587 26.6787 184.847C28.0186 187.175 30.8503 188.975 34.4488 189.789C37.9772 190.587 41.8296 190.439 45.5601 190.298C50.3632 190.116 55.2748 189.709 57.9478 186.934C60.3702 184.428 60.5473 180.454 60.5189 176.258L59.864 71.5137C59.8557 70.2066 60.9984 69.14 62.4151 69.1338C62.4201 69.1338 62.4251 69.1338 62.4301 69.1338C63.8401 69.1338 64.9878 70.185 64.9962 71.4891L65.6511 176.231C65.6828 181.179 65.4122 186.324 61.7819 190.085C57.7724 194.244 51.414 194.817 45.769 195.027C44.2971 195.085 42.7518 195.144 41.1681 195.144Z" fill="#373684"/>
<path d="M41.1681 195.144C38.5636 195.144 35.8621 194.983 33.2292 194.388C28.2107 193.254 24.1711 190.587 22.1446 187.067C20.2719 183.808 20.1984 180.072 20.1382 177.069L18.0316 72.6204C18.0048 71.3133 19.1325 70.2344 20.5492 70.2097C22.0193 70.1419 23.137 71.227 23.1637 72.5341L25.2704 176.983C25.3222 179.609 25.3806 182.587 26.6787 184.847C28.0186 187.175 30.8503 188.975 34.4488 189.789C37.9772 190.587 41.8296 190.439 45.5601 190.298C50.3632 190.116 55.2748 189.709 57.9478 186.934C60.3702 184.428 60.5473 180.454 60.5189 176.258L59.864 71.5137C59.8557 70.2066 60.9984 69.14 62.4151 69.1338C62.4201 69.1338 62.4251 69.1338 62.4301 69.1338C63.8401 69.1338 64.9878 70.185 64.9962 71.4891L65.6511 176.231C65.6828 181.179 65.4122 186.324 61.7819 190.085C57.7724 194.244 51.414 194.817 45.769 195.027C44.2971 195.085 42.7518 195.144 41.1681 195.144Z" fill="url(#paint0_linear_26_152)"/>
<path d="M42.5396 194.102C42.5313 194.102 42.5212 194.102 42.5112 194.102C41.0945 194.086 39.9585 193.017 39.9735 191.71L40.717 129.107C40.732 127.806 41.878 126.764 43.283 126.764C43.2914 126.764 43.3014 126.764 43.3114 126.764C44.7281 126.779 45.8642 127.849 45.8491 129.156L45.1057 191.759C45.0907 193.06 43.9446 194.102 42.5396 194.102Z" fill="#373684"/>
<path d="M42.5396 194.102C42.5313 194.102 42.5212 194.102 42.5112 194.102C41.0945 194.086 39.9585 193.017 39.9735 191.71L40.717 129.107C40.732 127.806 41.878 126.764 43.283 126.764C43.2914 126.764 43.3014 126.764 43.3114 126.764C44.7281 126.779 45.8642 127.849 45.8491 129.156L45.1057 191.759C45.0907 193.06 43.9446 194.102 42.5396 194.102Z" fill="url(#paint1_linear_26_152)"/>
<path d="M16.5364 124.519C11.6949 124.519 6.82835 122.318 4.06513 118.634C1.24679 114.876 0.753953 110.289 0.489994 105.915C-0.423839 90.6639 0.012195 75.2437 1.78807 60.0763C2.31265 55.5815 3.12123 50.9049 6.64792 47.4522C9.67342 44.4927 13.9369 43.2719 18.0917 42.3933C29.1479 40.0626 40.4998 39.1563 51.825 39.6958C57.2428 39.9578 64.2427 40.633 70.3372 43.5462C76.9228 46.6969 81.4619 52.2737 82.1853 58.1033C82.4409 60.1718 82.2588 62.2466 82.0834 64.2535C81.7943 67.5613 81.5437 70.4222 83.2043 72.4476C84.9969 74.6333 88.5671 75.031 90.5334 75.0711C92.0169 75.0896 93.4937 74.9971 94.9756 74.8984C96.9486 74.7628 98.9867 74.621 101.085 74.7628C106.102 75.0865 110.078 77.1088 111.993 80.3088C113.271 82.439 113.52 85.0101 112.691 87.5534C111.653 90.7379 109.097 93.5741 105.851 95.1402C100.637 97.6557 94.593 97.3721 89.7315 97.144C87.974 97.0638 86.1279 97.0577 84.2518 97.0515C77.1767 97.0299 69.1594 97.0053 63.2103 92.9113C62.0743 92.1283 61.8404 90.6454 62.6874 89.5973C63.5327 88.5491 65.1432 88.3395 66.2776 89.1133C70.8701 92.2762 77.6813 92.2978 84.2685 92.3163C86.2282 92.3225 88.1527 92.3286 89.9888 92.415C94.441 92.6246 99.4996 92.8589 103.476 90.9414C105.459 89.9857 107.148 88.1206 107.776 86.1908C108.078 85.2628 108.275 83.8879 107.502 82.5993C106.458 80.8575 103.925 79.6922 100.724 79.4857C98.9984 79.3808 97.2259 79.4949 95.3515 79.6213C93.7577 79.7292 92.1155 79.8309 90.4181 79.8063C85.4196 79.6984 81.4051 78.1015 79.1113 75.3023C76.2712 71.8372 76.6421 67.6045 76.9679 63.8712C77.1316 62.0092 77.2853 60.252 77.0865 58.6397C76.5553 54.3576 73.0636 50.1835 67.9749 47.7512C62.7843 45.2664 56.7634 44.6745 51.5577 44.4248C40.6919 43.8977 29.8262 44.7732 19.2378 47.0113C15.3469 47.8313 12.3514 48.7747 10.3834 50.7014C7.94767 53.0844 7.32285 56.8886 6.89016 60.5818C5.14436 75.4965 4.71501 90.6578 5.61547 105.653C5.84602 109.506 6.22525 113.193 8.28513 115.94C10.5622 118.976 15.0228 120.481 18.8853 119.501C20.2518 119.168 21.6618 119.898 22.0361 121.162C22.4086 122.423 21.6034 123.724 20.2351 124.069C19.0289 124.374 17.7826 124.519 16.5364 124.519Z" fill="#373684"/>
<path d="M16.5364 124.519C11.6949 124.519 6.82835 122.318 4.06513 118.634C1.24679 114.876 0.753953 110.289 0.489994 105.915C-0.423839 90.6639 0.012195 75.2437 1.78807 60.0763C2.31265 55.5815 3.12123 50.9049 6.64792 47.4522C9.67342 44.4927 13.9369 43.2719 18.0917 42.3933C29.1479 40.0626 40.4998 39.1563 51.825 39.6958C57.2428 39.9578 64.2427 40.633 70.3372 43.5462C76.9228 46.6969 81.4619 52.2737 82.1853 58.1033C82.4409 60.1718 82.2588 62.2466 82.0834 64.2535C81.7943 67.5613 81.5437 70.4222 83.2043 72.4476C84.9969 74.6333 88.5671 75.031 90.5334 75.0711C92.0169 75.0896 93.4937 74.9971 94.9756 74.8984C96.9486 74.7628 98.9867 74.621 101.085 74.7628C106.102 75.0865 110.078 77.1088 111.993 80.3088C113.271 82.439 113.52 85.0101 112.691 87.5534C111.653 90.7379 109.097 93.5741 105.851 95.1402C100.637 97.6557 94.593 97.3721 89.7315 97.144C87.974 97.0638 86.1279 97.0577 84.2518 97.0515C77.1767 97.0299 69.1594 97.0053 63.2103 92.9113C62.0743 92.1283 61.8404 90.6454 62.6874 89.5973C63.5327 88.5491 65.1432 88.3395 66.2776 89.1133C70.8701 92.2762 77.6813 92.2978 84.2685 92.3163C86.2282 92.3225 88.1527 92.3286 89.9888 92.415C94.441 92.6246 99.4996 92.8589 103.476 90.9414C105.459 89.9857 107.148 88.1206 107.776 86.1908C108.078 85.2628 108.275 83.8879 107.502 82.5993C106.458 80.8575 103.925 79.6922 100.724 79.4857C98.9984 79.3808 97.2259 79.4949 95.3515 79.6213C93.7577 79.7292 92.1155 79.8309 90.4181 79.8063C85.4196 79.6984 81.4051 78.1015 79.1113 75.3023C76.2712 71.8372 76.6421 67.6045 76.9679 63.8712C77.1316 62.0092 77.2853 60.252 77.0865 58.6397C76.5553 54.3576 73.0636 50.1835 67.9749 47.7512C62.7843 45.2664 56.7634 44.6745 51.5577 44.4248C40.6919 43.8977 29.8262 44.7732 19.2378 47.0113C15.3469 47.8313 12.3514 48.7747 10.3834 50.7014C7.94767 53.0844 7.32285 56.8886 6.89016 60.5818C5.14436 75.4965 4.71501 90.6578 5.61547 105.653C5.84602 109.506 6.22525 113.193 8.28513 115.94C10.5622 118.976 15.0228 120.481 18.8853 119.501C20.2518 119.168 21.6618 119.898 22.0361 121.162C22.4086 122.423 21.6034 123.724 20.2351 124.069C19.0289 124.374 17.7826 124.519 16.5364 124.519Z" fill="url(#paint2_linear_26_152)"/>
<path d="M42.9172 36.7827C38.3514 36.7827 33.9376 35.3677 30.4861 32.7997C25.374 28.9925 22.6174 22.8854 23.2924 16.8554C24.0358 10.1996 29.0928 4.14191 35.8788 1.7774C42.5463 -0.540877 50.9028 0.966618 56.1235 5.42128C61.4478 9.96226 63.668 17.3302 61.6466 23.7548C59.8674 29.421 54.9825 34.0822 48.8997 35.9165C46.9935 36.4929 44.9804 36.7827 42.9172 36.7827ZM42.6549 5.39354C40.9158 5.39354 39.2452 5.66791 37.6915 6.2074C32.6813 7.95227 28.9458 12.4285 28.3978 17.3425C27.9066 21.7263 29.9916 26.3474 33.7087 29.1127C37.3557 31.8225 42.8437 32.7566 47.3059 31.4156C51.7281 30.0807 55.4235 26.557 56.7182 22.4353C58.2101 17.6909 56.5712 12.2528 52.6386 8.89869C50.0274 6.66982 46.3888 5.39354 42.6549 5.39354Z" fill="#373684"/>
<path d="M42.9172 36.7827C38.3514 36.7827 33.9376 35.3677 30.4861 32.7997C25.374 28.9925 22.6174 22.8854 23.2924 16.8554C24.0358 10.1996 29.0928 4.14191 35.8788 1.7774C42.5463 -0.540877 50.9028 0.966618 56.1235 5.42128C61.4478 9.96226 63.668 17.3302 61.6466 23.7548C59.8674 29.421 54.9825 34.0822 48.8997 35.9165C46.9935 36.4929 44.9804 36.7827 42.9172 36.7827ZM42.6549 5.39354C40.9158 5.39354 39.2452 5.66791 37.6915 6.2074C32.6813 7.95227 28.9458 12.4285 28.3978 17.3425C27.9066 21.7263 29.9916 26.3474 33.7087 29.1127C37.3557 31.8225 42.8437 32.7566 47.3059 31.4156C51.7281 30.0807 55.4235 26.557 56.7182 22.4353C58.2101 17.6909 56.5712 12.2528 52.6386 8.89869C50.0274 6.66982 46.3888 5.39354 42.6549 5.39354Z" fill="url(#paint3_linear_26_152)"/>
<path d="M147.853 109.229C123.303 109.229 94.8519 108.72 92.8288 106.411C91.2267 104.583 91.1114 101.697 90.9978 98.9044C90.9477 97.662 90.9009 96.4875 90.7305 95.6027C90.4816 94.3141 91.4138 93.0871 92.8088 92.859C94.2071 92.6401 95.5369 93.491 95.7825 94.7765C96.0147 95.985 96.0715 97.3784 96.1266 98.7256C96.1784 100.02 96.2603 102.049 96.5994 103.014C103.457 104.318 151.271 104.99 183.637 104.182C188.166 104.074 193.205 103.714 195.691 100.816C197.504 98.704 197.687 95.5904 197.731 92.0359L198.158 56.6051C198.227 51.0622 197.956 44.8781 193.867 41.6319C190.664 39.0917 185.737 38.842 180.545 38.7988L108.987 38.2162C104.744 38.2038 100.567 38.4782 98.7027 40.8458C97.4949 42.378 97.3679 44.6592 97.3345 47.2611L96.9686 75.7463C96.9519 77.0442 95.8059 78.0862 94.4025 78.0862C94.3925 78.0862 94.3825 78.0862 94.3725 78.0862C92.9558 78.0707 91.8198 76.9979 91.8365 75.6908L92.2023 47.2056C92.2374 44.5606 92.2842 40.9383 94.5529 38.0589C97.7839 33.965 103.407 33.5025 109.032 33.481L180.592 34.0636C186.773 34.1129 192.697 34.4582 197.213 38.0435C202.975 42.6122 203.371 50.048 203.291 56.6606L202.863 92.0914C202.821 95.5164 202.764 100.205 199.714 103.757C195.531 108.631 187.882 108.816 183.773 108.917C183.395 108.927 166.782 109.229 147.853 109.229Z" fill="#373684"/>
<path d="M147.853 109.229C123.303 109.229 94.8519 108.72 92.8288 106.411C91.2267 104.583 91.1114 101.697 90.9978 98.9044C90.9477 97.662 90.9009 96.4875 90.7305 95.6027C90.4816 94.3141 91.4138 93.0871 92.8088 92.859C94.2071 92.6401 95.5369 93.491 95.7825 94.7765C96.0147 95.985 96.0715 97.3784 96.1266 98.7256C96.1784 100.02 96.2603 102.049 96.5994 103.014C103.457 104.318 151.271 104.99 183.637 104.182C188.166 104.074 193.205 103.714 195.691 100.816C197.504 98.704 197.687 95.5904 197.731 92.0359L198.158 56.6051C198.227 51.0622 197.956 44.8781 193.867 41.6319C190.664 39.0917 185.737 38.842 180.545 38.7988L108.987 38.2162C104.744 38.2038 100.567 38.4782 98.7027 40.8458C97.4949 42.378 97.3679 44.6592 97.3345 47.2611L96.9686 75.7463C96.9519 77.0442 95.8059 78.0862 94.4025 78.0862C94.3925 78.0862 94.3825 78.0862 94.3725 78.0862C92.9558 78.0707 91.8198 76.9979 91.8365 75.6908L92.2023 47.2056C92.2374 44.5606 92.2842 40.9383 94.5529 38.0589C97.7839 33.965 103.407 33.5025 109.032 33.481L180.592 34.0636C186.773 34.1129 192.697 34.4582 197.213 38.0435C202.975 42.6122 203.371 50.048 203.291 56.6606L202.863 92.0914C202.821 95.5164 202.764 100.205 199.714 103.757C195.531 108.631 187.882 108.816 183.773 108.917C183.395 108.927 166.782 109.229 147.853 109.229Z" fill="url(#paint4_linear_26_152)"/>
<path d="M183.637 51.6142C183.629 51.6142 183.619 51.6142 183.609 51.6142L105.781 50.8158C104.365 50.8004 103.228 49.7306 103.244 48.4204C103.259 47.1226 104.405 46.0806 105.81 46.0806C105.818 46.0806 105.828 46.0806 105.838 46.0806L183.666 46.879C185.082 46.8944 186.218 47.9642 186.203 49.2744C186.188 50.5722 185.042 51.6142 183.637 51.6142Z" fill="#373684"/>
<path d="M183.637 51.6142C183.629 51.6142 183.619 51.6142 183.609 51.6142L105.781 50.8158C104.365 50.8004 103.228 49.7306 103.244 48.4204C103.259 47.1226 104.405 46.0806 105.81 46.0806C105.818 46.0806 105.828 46.0806 105.838 46.0806L183.666 46.879C185.082 46.8944 186.218 47.9642 186.203 49.2744C186.188 50.5722 185.042 51.6142 183.637 51.6142Z" fill="url(#paint5_linear_26_152)"/>
<path d="M106.378 65.2308C104.991 65.2308 103.848 64.2104 103.813 62.9218C103.778 61.6147 104.899 60.5295 106.316 60.4956L136.534 59.802C137.872 59.8297 139.127 60.8039 139.164 62.111C139.199 63.4181 138.078 64.5033 136.661 64.5372L106.443 65.2308C106.421 65.2308 106.399 65.2308 106.378 65.2308Z" fill="#373684"/>
<path d="M106.378 65.2308C104.991 65.2308 103.848 64.2104 103.813 62.9218C103.778 61.6147 104.899 60.5295 106.316 60.4956L136.534 59.802C137.872 59.8297 139.127 60.8039 139.164 62.111C139.199 63.4181 138.078 64.5033 136.661 64.5372L106.443 65.2308C106.421 65.2308 106.399 65.2308 106.378 65.2308Z" fill="url(#paint6_linear_26_152)"/>
<path d="M111.719 87.6305C110.643 87.6305 109.64 87.0016 109.283 86.009C108.837 84.7666 109.565 83.4286 110.91 83.0155L161.74 67.4504C163.089 67.025 164.537 67.7125 164.985 68.9518C165.431 70.1941 164.702 71.5321 163.358 71.9452L112.527 87.5103C112.258 87.5935 111.986 87.6305 111.719 87.6305Z" fill="#373684"/>
<path d="M111.719 87.6305C110.643 87.6305 109.64 87.0016 109.283 86.009C108.837 84.7666 109.565 83.4286 110.91 83.0155L161.74 67.4504C163.089 67.025 164.537 67.7125 164.985 68.9518C165.431 70.1941 164.702 71.5321 163.358 71.9452L112.527 87.5103C112.258 87.5935 111.986 87.6305 111.719 87.6305Z" fill="url(#paint7_linear_26_152)"/>
<defs>
<linearGradient id="paint0_linear_26_152" x1="41.8422" y1="69.1338" x2="41.8422" y2="195.144" gradientUnits="userSpaceOnUse">
<stop offset="0.338542" stop-color="#015FCD"/>
<stop offset="1" stop-color="#0DD3F1"/>
</linearGradient>
<linearGradient id="paint1_linear_26_152" x1="42.9113" y1="126.764" x2="42.9113" y2="194.102" gradientUnits="userSpaceOnUse">
<stop offset="0.338542" stop-color="#015FCD"/>
<stop offset="1" stop-color="#0DD3F1"/>
</linearGradient>
<linearGradient id="paint2_linear_26_152" x1="56.5986" y1="39.5447" x2="56.5986" y2="124.519" gradientUnits="userSpaceOnUse">
<stop offset="0.338542" stop-color="#015FCD"/>
<stop offset="1" stop-color="#0DD3F1"/>
</linearGradient>
<linearGradient id="paint3_linear_26_152" x1="42.7885" y1="0.697998" x2="42.7885" y2="36.7827" gradientUnits="userSpaceOnUse">
<stop offset="0.338542" stop-color="#015FCD"/>
<stop offset="1" stop-color="#0DD3F1"/>
</linearGradient>
<linearGradient id="paint4_linear_26_152" x1="146.995" y1="33.481" x2="146.995" y2="109.229" gradientUnits="userSpaceOnUse">
<stop offset="0.338542" stop-color="#015FCD"/>
<stop offset="1" stop-color="#0DD3F1"/>
</linearGradient>
<linearGradient id="paint5_linear_26_152" x1="144.723" y1="46.0806" x2="144.723" y2="51.6142" gradientUnits="userSpaceOnUse">
<stop offset="0.338542" stop-color="#015FCD"/>
<stop offset="1" stop-color="#0DD3F1"/>
</linearGradient>
<linearGradient id="paint6_linear_26_152" x1="121.488" y1="59.802" x2="121.488" y2="65.2308" gradientUnits="userSpaceOnUse">
<stop offset="0.338542" stop-color="#015FCD"/>
<stop offset="1" stop-color="#0DD3F1"/>
</linearGradient>
<linearGradient id="paint7_linear_26_152" x1="137.134" y1="67.3242" x2="137.134" y2="87.6305" gradientUnits="userSpaceOnUse">
<stop offset="0.338542" stop-color="#015FCD"/>
<stop offset="1" stop-color="#0DD3F1"/>
</linearGradient>
</defs>
</svg>
