<svg width="141" height="160" viewBox="0 0 141 160" fill="none" xmlns="http://www.w3.org/2000/svg">
<path d="M138.901 97.5053L127.198 88.391V61.048L138.901 52.116C139.533 51.5692 140.008 50.84 140.008 49.9286C140.008 49.0172 139.533 48.1057 138.901 47.7412L78.6487 1.07592C77.858 0.529057 76.751 0.529057 75.9603 1.07592L1.63343 58.3138C1.31715 58.496 1.159 58.6783 1.00086 59.0429C1.00086 59.0429 1.00086 59.0429 1.00086 59.2252C0.684578 59.772 0.684578 60.1366 0.684578 60.6835V110.812C0.684578 111.724 1.159 112.635 1.79157 113L62.0438 159.3C62.5182 159.665 62.8345 159.847 63.3089 159.847C63.7833 159.847 64.2578 159.665 64.5741 159.3L139.059 102.062C139.692 101.516 140.166 100.786 140.166 99.875C140.008 98.7813 139.533 97.8698 138.901 97.5053ZM77.3836 6.72679L133.366 49.7463L124.194 56.6732C123.719 56.8555 123.245 57.22 122.929 57.5846L63.1508 103.521L18.2384 69.0686C18.0802 68.8863 17.9221 68.8863 17.9221 68.7041L7.16841 60.5012L77.3836 6.72679ZM19.0291 76.3601L61.7275 109.172C62.5182 109.718 63.6252 109.718 64.4159 109.172L122.454 64.5115V86.9327L63.4671 131.775L19.0291 98.9636V76.3601ZM63.1508 153.649L5.2707 109.172V65.7875L14.443 72.7143V100.422C14.443 101.333 14.9174 102.245 15.55 102.792L62.3601 137.426C62.6763 137.79 63.1508 137.79 63.6252 137.79C64.0996 137.79 64.5741 137.608 64.8903 137.426L124.036 92.5835L133.366 99.875L63.1508 153.649Z" fill="black"/>
<path d="M138.901 97.5053L127.198 88.391V61.048L138.901 52.116C139.533 51.5692 140.008 50.84 140.008 49.9286C140.008 49.0172 139.533 48.1057 138.901 47.7412L78.6487 1.07592C77.858 0.529057 76.751 0.529057 75.9603 1.07592L1.63343 58.3138C1.31715 58.496 1.159 58.6783 1.00086 59.0429C1.00086 59.0429 1.00086 59.0429 1.00086 59.2252C0.684578 59.772 0.684578 60.1366 0.684578 60.6835V110.812C0.684578 111.724 1.159 112.635 1.79157 113L62.0438 159.3C62.5182 159.665 62.8345 159.847 63.3089 159.847C63.7833 159.847 64.2578 159.665 64.5741 159.3L139.059 102.062C139.692 101.516 140.166 100.786 140.166 99.875C140.008 98.7813 139.533 97.8698 138.901 97.5053ZM77.3836 6.72679L133.366 49.7463L124.194 56.6732C123.719 56.8555 123.245 57.22 122.929 57.5846L63.1508 103.521L18.2384 69.0686C18.0802 68.8863 17.9221 68.8863 17.9221 68.7041L7.16841 60.5012L77.3836 6.72679ZM19.0291 76.3601L61.7275 109.172C62.5182 109.718 63.6252 109.718 64.4159 109.172L122.454 64.5115V86.9327L63.4671 131.775L19.0291 98.9636V76.3601ZM63.1508 153.649L5.2707 109.172V65.7875L14.443 72.7143V100.422C14.443 101.333 14.9174 102.245 15.55 102.792L62.3601 137.426C62.6763 137.79 63.1508 137.79 63.6252 137.79C64.0996 137.79 64.5741 137.608 64.8903 137.426L124.036 92.5835L133.366 99.875L63.1508 153.649Z" fill="url(#paint0_linear_26_167)"/>
<path d="M67.1043 31.6999L95.2537 53.9388C95.7281 54.3034 96.2025 54.4857 96.5188 54.4857C97.3095 54.4857 97.9421 54.1211 98.4165 53.2097C99.2072 51.9337 98.8909 50.2931 97.7839 49.3817L69.7928 27.1428C68.6858 26.2313 67.2625 26.5959 66.4718 27.8719C65.6811 29.1479 65.9973 30.7885 67.1043 31.6999Z" fill="black"/>
<path d="M67.1043 31.6999L95.2537 53.9388C95.7281 54.3034 96.2025 54.4857 96.5188 54.4857C97.3095 54.4857 97.9421 54.1211 98.4165 53.2097C99.2072 51.9337 98.8909 50.2931 97.7839 49.3817L69.7928 27.1428C68.6858 26.2313 67.2625 26.5959 66.4718 27.8719C65.6811 29.1479 65.9973 30.7885 67.1043 31.6999Z" fill="url(#paint1_linear_26_167)"/>
<defs>
<linearGradient id="paint0_linear_26_167" x1="70.4253" y1="0.665771" x2="70.4253" y2="159.847" gradientUnits="userSpaceOnUse">
<stop offset="0.338542" stop-color="#015FCD"/>
<stop offset="1" stop-color="#0DD3F1"/>
</linearGradient>
<linearGradient id="paint1_linear_26_167" x1="82.4441" y1="26.6365" x2="82.4441" y2="54.4857" gradientUnits="userSpaceOnUse">
<stop offset="0.338542" stop-color="#015FCD"/>
<stop offset="1" stop-color="#0DD3F1"/>
</linearGradient>
</defs>
</svg>
