<svg width="164" height="196" viewBox="0 0 164 196" fill="none" xmlns="http://www.w3.org/2000/svg">
<path d="M2.216 195.21H42.1875H64.395H99.9229H122.13H162.102C162.784 195.21 163.337 194.596 163.337 193.839V110.012C163.337 109.255 162.784 108.641 162.102 108.641H154.455V95.2169C154.455 94.4596 153.902 93.8458 153.22 93.8458H148.776C148.094 93.8458 147.541 94.4596 147.541 95.2169V108.641H123.365V106.45H131.012C131.694 106.45 132.247 105.836 132.247 105.079V90.2832C132.247 89.526 131.694 88.9121 131.012 88.9121H123.365V26.1857C123.365 25.4284 122.812 24.8146 122.13 24.8146H118.922V1.52882C118.922 0.771554 118.369 0.157715 117.687 0.157715H104.361C103.679 0.157715 103.126 0.771554 103.126 1.52882V14.953H87.8322V6.46249C87.8322 5.70522 87.2794 5.09139 86.5973 5.09139H77.7154C77.0333 5.09139 76.4805 5.70522 76.4805 6.46249V14.953H61.1863V1.52882C61.1863 0.771554 60.6334 0.157715 59.9514 0.157715H46.6259C45.9438 0.157715 45.391 0.771554 45.391 1.52882V24.8146H42.1823C41.5003 24.8146 40.9474 25.4284 40.9474 26.1857V88.9179H33.3003C32.6183 88.9179 32.0654 89.5317 32.0654 90.289V105.084C32.0654 105.842 32.6183 106.455 33.3003 106.455H40.9474V108.647H16.7713V93.8516H9.86307V108.647H2.216C1.53396 108.647 0.981094 109.261 0.981094 110.018V193.844C0.981094 194.596 1.53396 195.21 2.216 195.21ZM65.6299 192.468V145.902H80.924V192.468H65.6299ZM83.3938 192.468V145.902H98.688V192.468H83.3938ZM150.011 96.588H151.985V108.641H150.011V96.588ZM148.776 111.383H153.22H160.867V192.468H123.365V111.383H148.776ZM105.601 2.89992H116.457V24.8146H114.483V16.3241C114.483 15.5668 113.93 14.953 113.248 14.953H105.601V2.89992ZM52.3043 24.8146V17.6952H59.9514H77.7154H86.5973H104.361H112.008V24.8146H52.3043ZM78.9503 7.82785H85.3624V14.9473H78.9503V7.82785ZM47.8659 2.89992H58.7217V14.953H51.0746C50.3926 14.953 49.8397 15.5668 49.8397 16.3241V24.8146H47.8659V2.89992ZM43.4224 27.5568H46.631H51.0746H113.254H117.697H120.906V88.9179H43.4224V27.5568ZM34.5404 91.6601H42.1875H122.13H129.777V103.713H122.13H42.1875H34.5404V91.6601ZM120.896 106.45V110.012V192.468H101.158V144.531C101.158 143.773 100.605 143.16 99.9229 143.16H64.395C63.7129 143.16 63.1601 143.773 63.1601 144.531V192.468H43.4224V110.012V106.45H120.896ZM12.3329 96.588H14.3066V108.641H12.3329V96.588ZM3.4509 111.383H9.86307H16.7713H40.9474V192.468H3.4509V111.383Z" fill="black"/>
<path d="M2.216 195.21H42.1875H64.395H99.9229H122.13H162.102C162.784 195.21 163.337 194.596 163.337 193.839V110.012C163.337 109.255 162.784 108.641 162.102 108.641H154.455V95.2169C154.455 94.4596 153.902 93.8458 153.22 93.8458H148.776C148.094 93.8458 147.541 94.4596 147.541 95.2169V108.641H123.365V106.45H131.012C131.694 106.45 132.247 105.836 132.247 105.079V90.2832C132.247 89.526 131.694 88.9121 131.012 88.9121H123.365V26.1857C123.365 25.4284 122.812 24.8146 122.13 24.8146H118.922V1.52882C118.922 0.771554 118.369 0.157715 117.687 0.157715H104.361C103.679 0.157715 103.126 0.771554 103.126 1.52882V14.953H87.8322V6.46249C87.8322 5.70522 87.2794 5.09139 86.5973 5.09139H77.7154C77.0333 5.09139 76.4805 5.70522 76.4805 6.46249V14.953H61.1863V1.52882C61.1863 0.771554 60.6334 0.157715 59.9514 0.157715H46.6259C45.9438 0.157715 45.391 0.771554 45.391 1.52882V24.8146H42.1823C41.5003 24.8146 40.9474 25.4284 40.9474 26.1857V88.9179H33.3003C32.6183 88.9179 32.0654 89.5317 32.0654 90.289V105.084C32.0654 105.842 32.6183 106.455 33.3003 106.455H40.9474V108.647H16.7713V93.8516H9.86307V108.647H2.216C1.53396 108.647 0.981094 109.261 0.981094 110.018V193.844C0.981094 194.596 1.53396 195.21 2.216 195.21ZM65.6299 192.468V145.902H80.924V192.468H65.6299ZM83.3938 192.468V145.902H98.688V192.468H83.3938ZM150.011 96.588H151.985V108.641H150.011V96.588ZM148.776 111.383H153.22H160.867V192.468H123.365V111.383H148.776ZM105.601 2.89992H116.457V24.8146H114.483V16.3241C114.483 15.5668 113.93 14.953 113.248 14.953H105.601V2.89992ZM52.3043 24.8146V17.6952H59.9514H77.7154H86.5973H104.361H112.008V24.8146H52.3043ZM78.9503 7.82785H85.3624V14.9473H78.9503V7.82785ZM47.8659 2.89992H58.7217V14.953H51.0746C50.3926 14.953 49.8397 15.5668 49.8397 16.3241V24.8146H47.8659V2.89992ZM43.4224 27.5568H46.631H51.0746H113.254H117.697H120.906V88.9179H43.4224V27.5568ZM34.5404 91.6601H42.1875H122.13H129.777V103.713H122.13H42.1875H34.5404V91.6601ZM120.896 106.45V110.012V192.468H101.158V144.531C101.158 143.773 100.605 143.16 99.9229 143.16H64.395C63.7129 143.16 63.1601 143.773 63.1601 144.531V192.468H43.4224V110.012V106.45H120.896ZM12.3329 96.588H14.3066V108.641H12.3329V96.588ZM3.4509 111.383H9.86307H16.7713H40.9474V192.468H3.4509V111.383Z" fill="url(#paint0_linear_26_144)"/>
<path d="M33.3055 118.503H11.098C10.4159 118.503 9.86307 119.117 9.86307 119.874V183.977C9.86307 184.734 10.4159 185.348 11.098 185.348H33.3055C33.9875 185.348 34.5404 184.734 34.5404 183.977V119.874C34.5404 119.117 33.9875 118.503 33.3055 118.503ZM20.9668 150.554H12.3329V136.654H20.9668V150.554ZM23.4366 136.654H32.0706V150.554H23.4366V136.654ZM12.3329 153.297H20.9668V166.583H12.3329V153.297ZM23.4366 153.297H32.0706V166.583H23.4366V153.297ZM32.0706 133.912H23.4366V121.245H32.0706V133.912ZM20.9668 121.245V133.912H12.3329V121.245H20.9668ZM12.3329 169.319H20.9668V182.606H12.3329V169.319ZM23.4366 182.606V169.319H32.0706V182.606H23.4366Z" fill="black"/>
<path d="M33.3055 118.503H11.098C10.4159 118.503 9.86307 119.117 9.86307 119.874V183.977C9.86307 184.734 10.4159 185.348 11.098 185.348H33.3055C33.9875 185.348 34.5404 184.734 34.5404 183.977V119.874C34.5404 119.117 33.9875 118.503 33.3055 118.503ZM20.9668 150.554H12.3329V136.654H20.9668V150.554ZM23.4366 136.654H32.0706V150.554H23.4366V136.654ZM12.3329 153.297H20.9668V166.583H12.3329V153.297ZM23.4366 153.297H32.0706V166.583H23.4366V153.297ZM32.0706 133.912H23.4366V121.245H32.0706V133.912ZM20.9668 121.245V133.912H12.3329V121.245H20.9668ZM12.3329 169.319H20.9668V182.606H12.3329V169.319ZM23.4366 182.606V169.319H32.0706V182.606H23.4366Z" fill="url(#paint1_linear_26_144)"/>
<path d="M131.012 185.348H153.22C153.902 185.348 154.455 184.734 154.455 183.977V119.874C154.455 119.117 153.902 118.503 153.22 118.503H131.012C130.33 118.503 129.777 119.117 129.777 119.874V183.977C129.777 184.734 130.33 185.348 131.012 185.348ZM151.985 166.583H132.247V153.297H151.985V166.583ZM151.985 150.554H132.247V136.654H151.985V150.554ZM132.247 182.606V169.319H151.985V182.606H132.247ZM151.985 121.245V133.912H132.247V121.245H151.985Z" fill="black"/>
<path d="M131.012 185.348H153.22C153.902 185.348 154.455 184.734 154.455 183.977V119.874C154.455 119.117 153.902 118.503 153.22 118.503H131.012C130.33 118.503 129.777 119.117 129.777 119.874V183.977C129.777 184.734 130.33 185.348 131.012 185.348ZM151.985 166.583H132.247V153.297H151.985V166.583ZM151.985 150.554H132.247V136.654H151.985V150.554ZM132.247 182.606V169.319H151.985V182.606H132.247ZM151.985 121.245V133.912H132.247V121.245H151.985Z" fill="url(#paint2_linear_26_144)"/>
<path d="M113.248 34.6763H51.0694C50.3874 34.6763 49.8345 35.2901 49.8345 36.0474V85.3554C49.8345 86.1127 50.3874 86.7265 51.0694 86.7265H113.248C113.93 86.7265 114.483 86.1127 114.483 85.3554V36.0474C114.483 35.2901 113.93 34.6763 113.248 34.6763ZM112.014 59.3274H98.5691V37.4127H112.014V59.3274ZM80.924 62.0696V83.9843H67.8465V62.0696H80.924ZM67.8465 59.3274V37.4127H80.924V59.3274H67.8465ZM83.3938 62.0696H96.0993V83.9843H83.3938V62.0696ZM83.3938 59.3274V37.4127H96.0993V59.3274H83.3938ZM65.3819 37.4185V59.3332H52.3095V37.4185H65.3819ZM52.3043 62.0696H65.3767V83.9843H52.3043V62.0696ZM98.5691 83.9843V62.0696H112.014V83.9843H98.5691Z" fill="black"/>
<path d="M113.248 34.6763H51.0694C50.3874 34.6763 49.8345 35.2901 49.8345 36.0474V85.3554C49.8345 86.1127 50.3874 86.7265 51.0694 86.7265H113.248C113.93 86.7265 114.483 86.1127 114.483 85.3554V36.0474C114.483 35.2901 113.93 34.6763 113.248 34.6763ZM112.014 59.3274H98.5691V37.4127H112.014V59.3274ZM80.924 62.0696V83.9843H67.8465V62.0696H80.924ZM67.8465 59.3274V37.4127H80.924V59.3274H67.8465ZM83.3938 62.0696H96.0993V83.9843H83.3938V62.0696ZM83.3938 59.3274V37.4127H96.0993V59.3274H83.3938ZM65.3819 37.4185V59.3332H52.3095V37.4185H65.3819ZM52.3043 62.0696H65.3767V83.9843H52.3043V62.0696ZM98.5691 83.9843V62.0696H112.014V83.9843H98.5691Z" fill="url(#paint3_linear_26_144)"/>
<path d="M53.2912 118.778H111.027C111.709 118.778 112.262 118.164 112.262 117.407C112.262 116.65 111.709 116.036 111.027 116.036H53.2912C52.6092 116.036 52.0563 116.65 52.0563 117.407C52.0563 118.164 52.6092 118.778 53.2912 118.778Z" fill="black"/>
<path d="M53.2912 118.778H111.027C111.709 118.778 112.262 118.164 112.262 117.407C112.262 116.65 111.709 116.036 111.027 116.036H53.2912C52.6092 116.036 52.0563 116.65 52.0563 117.407C52.0563 118.164 52.6092 118.778 53.2912 118.778Z" fill="url(#paint4_linear_26_144)"/>
<path d="M95.4845 123.436H68.8385C68.1565 123.436 67.6036 124.05 67.6036 124.807C67.6036 125.565 68.1565 126.178 68.8385 126.178H95.4845C96.1665 126.178 96.7194 125.565 96.7194 124.807C96.7194 124.05 96.1665 123.436 95.4845 123.436Z" fill="black"/>
<path d="M95.4845 123.436H68.8385C68.1565 123.436 67.6036 124.05 67.6036 124.807C67.6036 125.565 68.1565 126.178 68.8385 126.178H95.4845C96.1665 126.178 96.7194 125.565 96.7194 124.807C96.7194 124.05 96.1665 123.436 95.4845 123.436Z" fill="url(#paint5_linear_26_144)"/>
<defs>
<linearGradient id="paint0_linear_26_144" x1="82.1589" y1="0.157715" x2="82.1589" y2="195.21" gradientUnits="userSpaceOnUse">
<stop offset="0.338542" stop-color="#015FCD"/>
<stop offset="1" stop-color="#0DD3F1"/>
</linearGradient>
<linearGradient id="paint1_linear_26_144" x1="22.2017" y1="118.503" x2="22.2017" y2="185.348" gradientUnits="userSpaceOnUse">
<stop offset="0.338542" stop-color="#015FCD"/>
<stop offset="1" stop-color="#0DD3F1"/>
</linearGradient>
<linearGradient id="paint2_linear_26_144" x1="142.116" y1="118.503" x2="142.116" y2="185.348" gradientUnits="userSpaceOnUse">
<stop offset="0.338542" stop-color="#015FCD"/>
<stop offset="1" stop-color="#0DD3F1"/>
</linearGradient>
<linearGradient id="paint3_linear_26_144" x1="82.1589" y1="34.6763" x2="82.1589" y2="86.7265" gradientUnits="userSpaceOnUse">
<stop offset="0.338542" stop-color="#015FCD"/>
<stop offset="1" stop-color="#0DD3F1"/>
</linearGradient>
<linearGradient id="paint4_linear_26_144" x1="82.1589" y1="116.036" x2="82.1589" y2="118.778" gradientUnits="userSpaceOnUse">
<stop offset="0.338542" stop-color="#015FCD"/>
<stop offset="1" stop-color="#0DD3F1"/>
</linearGradient>
<linearGradient id="paint5_linear_26_144" x1="82.1615" y1="123.436" x2="82.1615" y2="126.178" gradientUnits="userSpaceOnUse">
<stop offset="0.338542" stop-color="#015FCD"/>
<stop offset="1" stop-color="#0DD3F1"/>
</linearGradient>
</defs>
</svg>
