<svg width="94" height="66" viewBox="0 0 94 66" fill="none" xmlns="http://www.w3.org/2000/svg">
<path d="M93.5015 59.6052C93.3876 59.3034 93.2815 59.053 93.183 58.8523C91.5521 55.2376 88.4355 50.8008 83.8351 45.5407L83.7379 45.4202L83.6892 45.3611L83.64 45.3006H83.5906C81.5027 42.8512 80.1806 41.2043 79.6269 40.3611C78.6138 38.7549 78.3868 37.129 78.9405 35.4817C79.3317 34.2371 80.8011 31.6086 83.3453 27.5926C84.6836 25.4643 85.7435 23.7585 86.5262 22.4734C92.1713 13.2378 94.6186 7.33609 93.8678 4.76603L93.5762 4.16544C93.3803 3.80386 92.8746 3.47308 92.0598 3.17142C91.2432 2.87038 90.1994 2.8206 88.9266 3.02122L74.8317 3.14104C74.6034 3.04147 74.2774 3.05075 73.8526 3.17142C73.4283 3.29208 73.2161 3.35263 73.2161 3.35263L72.9708 3.50346L72.7761 3.68467C72.6129 3.80449 72.4334 4.01524 72.2374 4.31648C72.0425 4.61667 71.8795 4.96896 71.7492 5.37041C70.2147 10.2289 68.47 14.7461 66.5118 18.9217C65.3045 21.4116 64.1958 23.5695 63.1832 25.3966C62.172 27.223 61.3236 28.5687 60.639 29.4313C59.9533 30.2947 59.3345 30.9865 58.7787 31.509C58.2238 32.0317 57.8002 32.2526 57.5069 32.1718C57.213 32.091 56.9361 32.0109 56.674 31.9307C56.2175 31.5691 55.8503 31.0774 55.5735 30.4551C55.2954 29.8327 55.1083 29.0495 55.0104 28.1059C54.913 27.1616 54.8554 26.3495 54.839 25.6666C54.8237 24.9846 54.8307 24.0199 54.8638 22.7753C54.8978 21.53 54.913 20.6874 54.913 20.2457C54.913 18.7196 54.9372 17.0634 54.9857 15.2766C55.0351 13.4899 55.075 12.0741 55.1084 11.0312C55.1417 9.98716 55.1571 8.8826 55.1571 7.71813C55.1571 6.55366 55.0995 5.64043 54.9857 4.97761C54.8732 4.31564 54.7006 3.67307 54.4731 3.05012C54.2443 2.4278 53.9093 1.9464 53.4698 1.60466C53.0294 1.26333 52.4819 0.992464 51.8304 0.791213C50.1009 0.309602 47.8987 0.0490731 45.2226 0.00856979C39.1542 -0.0715931 35.2549 0.410649 33.5256 1.45467C32.8404 1.89577 32.2204 2.49847 31.666 3.26086C31.0785 4.14455 30.9966 4.6268 31.4207 4.70612C33.3787 5.06706 34.7648 5.9305 35.5806 7.29559L35.8745 8.01895C36.1032 8.54085 36.3315 9.46484 36.56 10.7896C36.7882 12.1144 36.9355 13.5799 37.0003 15.1853C37.1631 18.1169 37.1631 20.6265 37.0003 22.7141C36.8369 24.8025 36.6826 26.4284 36.5354 27.5928C36.3881 28.7573 36.168 29.7009 35.8745 30.4234C35.5806 31.1462 35.385 31.5879 35.2869 31.7482C35.189 31.9085 35.1074 32.0096 35.0426 32.0493C34.6185 32.2492 34.1775 32.3511 33.721 32.3511C33.2638 32.3511 32.7094 32.0697 32.057 31.5073C31.4047 30.9449 30.7278 30.1724 30.0262 29.1885C29.3246 28.2044 28.5333 26.8292 27.652 25.0626C26.7714 23.2961 25.8578 21.2083 24.9115 18.7992L24.1286 17.052C23.6392 15.9281 22.9707 14.2915 22.1223 12.1438C21.2735 9.99518 20.5231 7.91685 19.8709 5.90919C19.6102 5.066 19.2185 4.42407 18.6965 3.98233L18.4515 3.80112C18.2887 3.64079 18.0273 3.47055 17.6687 3.28913C17.3095 3.10792 16.9348 2.97797 16.5429 2.89802L3.13288 3.01784C1.76255 3.01784 0.832761 3.39988 0.343184 4.1629L0.14725 4.52385C0.0493691 4.72489 0 5.04596 0 5.48791C0 5.92965 0.0978811 6.47181 0.293815 7.11374C2.25144 12.7758 4.38031 18.2363 6.68043 23.4963C8.98055 28.7562 10.9793 32.9933 12.6755 36.2036C14.3721 39.4162 16.1014 42.4483 17.8634 45.2983C19.6254 48.1493 20.7918 49.9764 21.3624 50.7791C21.9338 51.5833 22.3825 52.1845 22.7088 52.5859L23.9325 54.0312C24.7156 54.995 25.8655 56.1494 27.3827 57.4942C28.9003 58.8399 30.5804 60.1647 32.4238 61.4707C34.2676 62.7746 36.4126 63.8387 38.86 64.6616C41.307 65.4854 43.6887 65.816 46.0055 65.6565H51.6339C52.7754 65.5352 53.6402 65.0935 54.228 64.3311L54.4227 64.0292C54.5537 63.7895 54.6763 63.4172 54.7894 62.9162C54.9039 62.4143 54.9608 61.8614 54.9608 61.26C54.9274 59.5337 55.0342 57.9779 55.2783 56.5928C55.5222 55.2081 55.8003 54.1641 56.1112 53.461C56.422 52.7585 56.7728 52.1657 57.1631 51.6852C57.5543 51.2035 57.833 50.9118 57.9965 50.8114C58.159 50.7103 58.2888 50.6418 58.3867 50.6006C59.1697 50.2796 60.0913 50.5905 61.1527 51.535C62.2133 52.4785 63.208 53.6437 64.1385 55.0284C65.0685 56.4143 66.1858 57.9693 67.4906 59.6955C68.7964 61.4224 69.938 62.7061 70.9165 63.5505L71.895 64.2733C72.5484 64.7555 73.3968 65.1972 74.4411 65.5987C75.4835 65.9999 76.3968 66.1003 77.181 65.8997L89.7097 65.6592C90.9489 65.6592 91.9131 65.4067 92.5971 64.9057C93.2824 64.4038 93.6895 63.8509 93.8208 63.2495C93.9518 62.6474 93.9588 61.9644 93.8457 61.2007C93.7296 60.4389 93.6153 59.9063 93.5015 59.6052Z" fill="black"/>
<path d="M93.5015 59.6052C93.3876 59.3034 93.2815 59.053 93.183 58.8523C91.5521 55.2376 88.4355 50.8008 83.8351 45.5407L83.7379 45.4202L83.6892 45.3611L83.64 45.3006H83.5906C81.5027 42.8512 80.1806 41.2043 79.6269 40.3611C78.6138 38.7549 78.3868 37.129 78.9405 35.4817C79.3317 34.2371 80.8011 31.6086 83.3453 27.5926C84.6836 25.4643 85.7435 23.7585 86.5262 22.4734C92.1713 13.2378 94.6186 7.33609 93.8678 4.76603L93.5762 4.16544C93.3803 3.80386 92.8746 3.47308 92.0598 3.17142C91.2432 2.87038 90.1994 2.8206 88.9266 3.02122L74.8317 3.14104C74.6034 3.04147 74.2774 3.05075 73.8526 3.17142C73.4283 3.29208 73.2161 3.35263 73.2161 3.35263L72.9708 3.50346L72.7761 3.68467C72.6129 3.80449 72.4334 4.01524 72.2374 4.31648C72.0425 4.61667 71.8795 4.96896 71.7492 5.37041C70.2147 10.2289 68.47 14.7461 66.5118 18.9217C65.3045 21.4116 64.1958 23.5695 63.1832 25.3966C62.172 27.223 61.3236 28.5687 60.639 29.4313C59.9533 30.2947 59.3345 30.9865 58.7787 31.509C58.2238 32.0317 57.8002 32.2526 57.5069 32.1718C57.213 32.091 56.9361 32.0109 56.674 31.9307C56.2175 31.5691 55.8503 31.0774 55.5735 30.4551C55.2954 29.8327 55.1083 29.0495 55.0104 28.1059C54.913 27.1616 54.8554 26.3495 54.839 25.6666C54.8237 24.9846 54.8307 24.0199 54.8638 22.7753C54.8978 21.53 54.913 20.6874 54.913 20.2457C54.913 18.7196 54.9372 17.0634 54.9857 15.2766C55.0351 13.4899 55.075 12.0741 55.1084 11.0312C55.1417 9.98716 55.1571 8.8826 55.1571 7.71813C55.1571 6.55366 55.0995 5.64043 54.9857 4.97761C54.8732 4.31564 54.7006 3.67307 54.4731 3.05012C54.2443 2.4278 53.9093 1.9464 53.4698 1.60466C53.0294 1.26333 52.4819 0.992464 51.8304 0.791213C50.1009 0.309602 47.8987 0.0490731 45.2226 0.00856979C39.1542 -0.0715931 35.2549 0.410649 33.5256 1.45467C32.8404 1.89577 32.2204 2.49847 31.666 3.26086C31.0785 4.14455 30.9966 4.6268 31.4207 4.70612C33.3787 5.06706 34.7648 5.9305 35.5806 7.29559L35.8745 8.01895C36.1032 8.54085 36.3315 9.46484 36.56 10.7896C36.7882 12.1144 36.9355 13.5799 37.0003 15.1853C37.1631 18.1169 37.1631 20.6265 37.0003 22.7141C36.8369 24.8025 36.6826 26.4284 36.5354 27.5928C36.3881 28.7573 36.168 29.7009 35.8745 30.4234C35.5806 31.1462 35.385 31.5879 35.2869 31.7482C35.189 31.9085 35.1074 32.0096 35.0426 32.0493C34.6185 32.2492 34.1775 32.3511 33.721 32.3511C33.2638 32.3511 32.7094 32.0697 32.057 31.5073C31.4047 30.9449 30.7278 30.1724 30.0262 29.1885C29.3246 28.2044 28.5333 26.8292 27.652 25.0626C26.7714 23.2961 25.8578 21.2083 24.9115 18.7992L24.1286 17.052C23.6392 15.9281 22.9707 14.2915 22.1223 12.1438C21.2735 9.99518 20.5231 7.91685 19.8709 5.90919C19.6102 5.066 19.2185 4.42407 18.6965 3.98233L18.4515 3.80112C18.2887 3.64079 18.0273 3.47055 17.6687 3.28913C17.3095 3.10792 16.9348 2.97797 16.5429 2.89802L3.13288 3.01784C1.76255 3.01784 0.832761 3.39988 0.343184 4.1629L0.14725 4.52385C0.0493691 4.72489 0 5.04596 0 5.48791C0 5.92965 0.0978811 6.47181 0.293815 7.11374C2.25144 12.7758 4.38031 18.2363 6.68043 23.4963C8.98055 28.7562 10.9793 32.9933 12.6755 36.2036C14.3721 39.4162 16.1014 42.4483 17.8634 45.2983C19.6254 48.1493 20.7918 49.9764 21.3624 50.7791C21.9338 51.5833 22.3825 52.1845 22.7088 52.5859L23.9325 54.0312C24.7156 54.995 25.8655 56.1494 27.3827 57.4942C28.9003 58.8399 30.5804 60.1647 32.4238 61.4707C34.2676 62.7746 36.4126 63.8387 38.86 64.6616C41.307 65.4854 43.6887 65.816 46.0055 65.6565H51.6339C52.7754 65.5352 53.6402 65.0935 54.228 64.3311L54.4227 64.0292C54.5537 63.7895 54.6763 63.4172 54.7894 62.9162C54.9039 62.4143 54.9608 61.8614 54.9608 61.26C54.9274 59.5337 55.0342 57.9779 55.2783 56.5928C55.5222 55.2081 55.8003 54.1641 56.1112 53.461C56.422 52.7585 56.7728 52.1657 57.1631 51.6852C57.5543 51.2035 57.833 50.9118 57.9965 50.8114C58.159 50.7103 58.2888 50.6418 58.3867 50.6006C59.1697 50.2796 60.0913 50.5905 61.1527 51.535C62.2133 52.4785 63.208 53.6437 64.1385 55.0284C65.0685 56.4143 66.1858 57.9693 67.4906 59.6955C68.7964 61.4224 69.938 62.7061 70.9165 63.5505L71.895 64.2733C72.5484 64.7555 73.3968 65.1972 74.4411 65.5987C75.4835 65.9999 76.3968 66.1003 77.181 65.8997L89.7097 65.6592C90.9489 65.6592 91.9131 65.4067 92.5971 64.9057C93.2824 64.4038 93.6895 63.8509 93.8208 63.2495C93.9518 62.6474 93.9588 61.9644 93.8457 61.2007C93.7296 60.4389 93.6153 59.9063 93.5015 59.6052Z" fill="url(#paint0_linear_28_24)"/>
<defs>
<linearGradient id="paint0_linear_28_24" x1="47" y1="0" x2="47" y2="66" gradientUnits="userSpaceOnUse">
<stop offset="0.338542" stop-color="#015FCD"/>
<stop offset="1" stop-color="#0DD3F1"/>
</linearGradient>
</defs>
</svg>
