<svg width="60" height="73" viewBox="0 0 60 73" fill="none" xmlns="http://www.w3.org/2000/svg">
<path d="M16.0838 3.48554C10.6586 5.77203 6.31261 9.67455 3.80502 14.5114C1.31293 18.9331 0.249105 23.8792 0.731103 28.8031C1.2131 33.727 3.22215 38.437 6.53626 42.4126L30.12 72.397L53.68 42.4126C57.4936 37.8876 59.5366 32.3837 59.4988 26.7366C59.4988 8.30408 38.1238 -5.58342 16.0838 3.48554ZM30.5238 35.4689C28.4043 35.473 26.331 34.92 24.5665 33.8798C22.8019 32.8396 21.4253 31.3589 20.6109 29.6253C19.7966 27.8916 19.5811 25.9829 19.9917 24.1406C20.4023 22.2984 21.4206 20.6055 22.9176 19.2763C24.4147 17.947 26.3232 17.0411 28.4016 16.6732C30.48 16.3053 32.6349 16.492 34.5935 17.2097C36.5521 17.9273 38.2264 19.1436 39.4044 20.7047C40.5825 22.2657 41.2113 24.1013 41.2113 25.9791C41.2113 28.4923 40.086 30.9029 38.0824 32.6819C36.0788 34.461 33.3604 35.4633 30.5238 35.4689Z" fill="white"/>
</svg>
