<svg width="68" height="72" viewBox="0 0 68 72" fill="none" xmlns="http://www.w3.org/2000/svg">
<path d="M67.6941 57.3915L67.3556 56.3115C66.554 53.7882 63.9265 51.1566 61.5127 50.4633L52.5789 47.8787C50.1562 47.1807 46.7003 48.1193 44.9278 49.9963L41.6945 53.4204C29.944 50.0579 20.7298 40.2996 17.559 27.8581L20.7924 24.4338C22.565 22.5566 23.4511 18.9016 22.792 16.3359L20.3559 6.87027C19.6968 4.30928 17.2073 1.52674 14.8292 0.687159L13.8094 0.324041C11.4267 -0.515536 8.0287 0.333549 6.25628 2.21056L1.41975 7.33722C0.555701 8.24743 0.00347043 10.8508 0.00347043 10.8603C-0.16569 27.1222 5.8554 42.7897 16.7173 54.2928C27.5526 65.7675 42.2915 72.1346 57.6024 71.9978C57.6825 71.9978 60.2121 71.4224 61.0762 70.512L65.9127 65.39C67.6851 63.5132 68.4867 59.9147 67.6941 57.3915Z" fill="black"/>
<path d="M67.6941 57.3915L67.3556 56.3115C66.554 53.7882 63.9265 51.1566 61.5127 50.4633L52.5789 47.8787C50.1562 47.1807 46.7003 48.1193 44.9278 49.9963L41.6945 53.4204C29.944 50.0579 20.7298 40.2996 17.559 27.8581L20.7924 24.4338C22.565 22.5566 23.4511 18.9016 22.792 16.3359L20.3559 6.87027C19.6968 4.30928 17.2073 1.52674 14.8292 0.687159L13.8094 0.324041C11.4267 -0.515536 8.0287 0.333549 6.25628 2.21056L1.41975 7.33722C0.555701 8.24743 0.00347043 10.8508 0.00347043 10.8603C-0.16569 27.1222 5.8554 42.7897 16.7173 54.2928C27.5526 65.7675 42.2915 72.1346 57.6024 71.9978C57.6825 71.9978 60.2121 71.4224 61.0762 70.512L65.9127 65.39C67.6851 63.5132 68.4867 59.9147 67.6941 57.3915Z" fill="url(#paint0_linear_27_643)"/>
<path d="M67.6941 57.3915L67.3556 56.3115C66.554 53.7882 63.9265 51.1566 61.5127 50.4633L52.5789 47.8787C50.1562 47.1807 46.7003 48.1193 44.9278 49.9963L41.6945 53.4204C29.944 50.0579 20.7298 40.2996 17.559 27.8581L20.7924 24.4338C22.565 22.5566 23.4511 18.9016 22.792 16.3359L20.3559 6.87027C19.6968 4.30928 17.2073 1.52674 14.8292 0.687159L13.8094 0.324041C11.4267 -0.515536 8.0287 0.333549 6.25628 2.21056L1.41975 7.33722C0.555701 8.24743 0.00347043 10.8508 0.00347043 10.8603C-0.16569 27.1222 5.8554 42.7897 16.7173 54.2928C27.5526 65.7675 42.2915 72.1346 57.6024 71.9978C57.6825 71.9978 60.2121 71.4224 61.0762 70.512L65.9127 65.39C67.6851 63.5132 68.4867 59.9147 67.6941 57.3915Z" fill="white"/>
<defs>
<linearGradient id="paint0_linear_27_643" x1="0.0327167" y1="35.9831" x2="68.0817" y2="35.9831" gradientUnits="userSpaceOnUse">
<stop stop-color="#00CFFF"/>
<stop offset="1" stop-color="#00AFD6"/>
</linearGradient>
</defs>
</svg>
