<svg width="74" height="74" viewBox="0 0 74 74" fill="none" xmlns="http://www.w3.org/2000/svg">
<path fill-rule="evenodd" clip-rule="evenodd" d="M61.1905 17.2495C61.1905 19.7019 59.2023 21.6895 56.7505 21.6895C54.2987 21.6895 52.3105 19.7019 52.3105 17.2495C52.3105 14.7971 54.2987 12.8095 56.7505 12.8095C59.2029 12.8095 61.1905 14.7971 61.1905 17.2495ZM37 49.3331C30.1885 49.3331 24.6669 43.8115 24.6669 37C24.6669 30.1885 30.1885 24.6669 37 24.6669C43.8115 24.6669 49.3331 30.1885 49.3331 37C49.3331 43.8115 43.8115 49.3331 37 49.3331ZM37 17.9999C26.5065 17.9999 17.9999 26.5065 17.9999 37C17.9999 47.4935 26.5065 56.0001 37 56.0001C47.4935 56.0001 56.0001 47.4935 56.0001 37C56.0001 26.5065 47.4935 17.9999 37 17.9999ZM37 6.66694C46.8796 6.66694 48.0497 6.70452 51.9509 6.88258C55.5584 7.04734 57.5177 7.64975 58.8213 8.15677C60.5482 8.82797 61.7807 9.62983 63.0757 10.9248C64.3708 12.2192 65.1726 13.4518 65.8438 15.1793C66.3503 16.4829 66.9532 18.4422 67.118 22.0497C67.2961 25.9515 67.3336 27.1216 67.3336 37.0012C67.3336 46.8807 67.2961 48.0509 67.118 51.952C66.9532 55.5595 66.3508 57.5188 65.8438 58.8225C65.1726 60.5493 64.3708 61.7819 63.0757 63.0769C61.7813 64.3719 60.5488 65.1738 58.8213 65.845C57.5177 66.3514 55.5584 66.9544 51.9509 67.1192C48.0497 67.2972 46.8796 67.3348 37 67.3348C27.1198 67.3348 25.9497 67.2972 22.0485 67.1192C18.441 66.9544 16.4818 66.352 15.1781 65.845C13.4512 65.1738 12.2187 64.3719 10.9237 63.0769C9.62925 61.7825 8.82681 60.5499 8.15561 58.8225C7.64917 57.5188 7.04619 55.5595 6.88142 51.952C6.70336 48.0503 6.66578 46.8802 6.66578 37.0012C6.66578 27.1216 6.70336 25.9515 6.88142 22.0497C7.04619 18.4422 7.64859 16.4829 8.15561 15.1793C8.82681 13.4524 9.62867 12.2198 10.9237 10.9248C12.2181 9.62983 13.4507 8.82797 15.1781 8.15677C16.4818 7.65033 18.441 7.04734 22.0485 6.88258C25.9503 6.70452 27.1204 6.66694 37 6.66694ZM37 0C26.9516 0 25.6913 0.0427812 21.745 0.222578C17.8068 0.402375 15.1168 1.02791 12.7638 1.9425C10.3305 2.88773 8.26719 4.15325 6.21022 6.21022C4.15325 8.26719 2.88773 10.3305 1.9425 12.7638C1.02791 15.1174 0.402375 17.8068 0.222578 21.745C0.0427812 25.6913 0 26.9516 0 37C0 47.0484 0.0427812 48.3087 0.222578 52.255C0.402375 56.1932 1.02791 58.8826 1.9425 61.2362C2.88773 63.6695 4.15325 65.7328 6.21022 67.7898C8.26719 69.8467 10.3305 71.1117 12.7638 72.0575C15.1174 72.9721 17.8068 73.5976 21.745 73.7774C25.6913 73.9572 26.9516 74 37 74C47.0484 74 48.3087 73.9572 52.255 73.7774C56.1932 73.5976 58.8826 72.9721 61.2362 72.0575C63.6695 71.1117 65.7328 69.8467 67.7898 67.7898C69.8467 65.7328 71.1117 63.6695 72.0575 61.2362C72.9721 58.8826 73.5976 56.1932 73.7774 52.255C73.9572 48.3087 74 47.0484 74 37C74 26.9516 73.9572 25.6913 73.7774 21.745C73.5976 17.8068 72.9721 15.1174 72.0575 12.7638C71.1117 10.3305 69.8467 8.26719 67.7898 6.21022C65.7328 4.15325 63.6695 2.88831 61.2362 1.9425C58.8826 1.02791 56.1932 0.402375 52.255 0.222578C48.3087 0.0427812 47.0484 0 37 0Z" fill="url(#paint0_radial_28_17)"/>
<path fill-rule="evenodd" clip-rule="evenodd" d="M61.1905 17.2495C61.1905 19.7019 59.2023 21.6895 56.7505 21.6895C54.2987 21.6895 52.3105 19.7019 52.3105 17.2495C52.3105 14.7971 54.2987 12.8095 56.7505 12.8095C59.2029 12.8095 61.1905 14.7971 61.1905 17.2495ZM37 49.3331C30.1885 49.3331 24.6669 43.8115 24.6669 37C24.6669 30.1885 30.1885 24.6669 37 24.6669C43.8115 24.6669 49.3331 30.1885 49.3331 37C49.3331 43.8115 43.8115 49.3331 37 49.3331ZM37 17.9999C26.5065 17.9999 17.9999 26.5065 17.9999 37C17.9999 47.4935 26.5065 56.0001 37 56.0001C47.4935 56.0001 56.0001 47.4935 56.0001 37C56.0001 26.5065 47.4935 17.9999 37 17.9999ZM37 6.66694C46.8796 6.66694 48.0497 6.70452 51.9509 6.88258C55.5584 7.04734 57.5177 7.64975 58.8213 8.15677C60.5482 8.82797 61.7807 9.62983 63.0757 10.9248C64.3708 12.2192 65.1726 13.4518 65.8438 15.1793C66.3503 16.4829 66.9532 18.4422 67.118 22.0497C67.2961 25.9515 67.3336 27.1216 67.3336 37.0012C67.3336 46.8807 67.2961 48.0509 67.118 51.952C66.9532 55.5595 66.3508 57.5188 65.8438 58.8225C65.1726 60.5493 64.3708 61.7819 63.0757 63.0769C61.7813 64.3719 60.5488 65.1738 58.8213 65.845C57.5177 66.3514 55.5584 66.9544 51.9509 67.1192C48.0497 67.2972 46.8796 67.3348 37 67.3348C27.1198 67.3348 25.9497 67.2972 22.0485 67.1192C18.441 66.9544 16.4818 66.352 15.1781 65.845C13.4512 65.1738 12.2187 64.3719 10.9237 63.0769C9.62925 61.7825 8.82681 60.5499 8.15561 58.8225C7.64917 57.5188 7.04619 55.5595 6.88142 51.952C6.70336 48.0503 6.66578 46.8802 6.66578 37.0012C6.66578 27.1216 6.70336 25.9515 6.88142 22.0497C7.04619 18.4422 7.64859 16.4829 8.15561 15.1793C8.82681 13.4524 9.62867 12.2198 10.9237 10.9248C12.2181 9.62983 13.4507 8.82797 15.1781 8.15677C16.4818 7.65033 18.441 7.04734 22.0485 6.88258C25.9503 6.70452 27.1204 6.66694 37 6.66694ZM37 0C26.9516 0 25.6913 0.0427812 21.745 0.222578C17.8068 0.402375 15.1168 1.02791 12.7638 1.9425C10.3305 2.88773 8.26719 4.15325 6.21022 6.21022C4.15325 8.26719 2.88773 10.3305 1.9425 12.7638C1.02791 15.1174 0.402375 17.8068 0.222578 21.745C0.0427812 25.6913 0 26.9516 0 37C0 47.0484 0.0427812 48.3087 0.222578 52.255C0.402375 56.1932 1.02791 58.8826 1.9425 61.2362C2.88773 63.6695 4.15325 65.7328 6.21022 67.7898C8.26719 69.8467 10.3305 71.1117 12.7638 72.0575C15.1174 72.9721 17.8068 73.5976 21.745 73.7774C25.6913 73.9572 26.9516 74 37 74C47.0484 74 48.3087 73.9572 52.255 73.7774C56.1932 73.5976 58.8826 72.9721 61.2362 72.0575C63.6695 71.1117 65.7328 69.8467 67.7898 67.7898C69.8467 65.7328 71.1117 63.6695 72.0575 61.2362C72.9721 58.8826 73.5976 56.1932 73.7774 52.255C73.9572 48.3087 74 47.0484 74 37C74 26.9516 73.9572 25.6913 73.7774 21.745C73.5976 17.8068 72.9721 15.1174 72.0575 12.7638C71.1117 10.3305 69.8467 8.26719 67.7898 6.21022C65.7328 4.15325 63.6695 2.88831 61.2362 1.9425C58.8826 1.02791 56.1932 0.402375 52.255 0.222578C48.3087 0.0427812 47.0484 0 37 0Z" fill="url(#paint1_linear_28_17)"/>
<defs>
<radialGradient id="paint0_radial_28_17" cx="0" cy="0" r="1" gradientUnits="userSpaceOnUse" gradientTransform="translate(11.0486 74.2569) scale(94.5534)">
<stop stop-color="#FFB140"/>
<stop offset="0.2559" stop-color="#FF5445"/>
<stop offset="0.599" stop-color="#FC2B82"/>
<stop offset="1" stop-color="#8E40B7"/>
</radialGradient>
<linearGradient id="paint1_linear_28_17" x1="37" y1="0" x2="37" y2="74" gradientUnits="userSpaceOnUse">
<stop offset="0.338542" stop-color="#015FCD"/>
<stop offset="1" stop-color="#0DD3F1"/>
</linearGradient>
</defs>
</svg>
