<svg width="132" height="132" viewBox="0 0 132 132" fill="none" xmlns="http://www.w3.org/2000/svg">
<path d="M66 131.813C52.9835 131.813 40.2594 127.953 29.4366 120.721C18.6138 113.49 10.1784 103.211 5.19721 91.1854C0.216016 79.1597 -1.08729 65.927 1.4521 53.1606C3.99149 40.3943 10.2595 28.6676 19.4636 19.4636C28.6676 10.2595 40.3943 3.99149 53.1606 1.4521C65.927 -1.08729 79.1597 0.216016 91.1854 5.19721C103.211 10.1784 113.49 18.6138 120.721 29.4366C127.953 40.2594 131.813 52.9835 131.813 66C131.813 83.4546 124.879 100.194 112.536 112.536C100.194 124.879 83.4546 131.813 66 131.813ZM66 10.3125C54.9861 10.3125 44.2195 13.5785 35.0617 19.6976C25.9039 25.8166 18.7663 34.5138 14.5515 44.6893C10.3366 54.8649 9.23383 66.0618 11.3825 76.8641C13.5313 87.6664 18.835 97.589 26.623 105.377C34.4111 113.165 44.3336 118.469 55.1359 120.618C65.9383 122.766 77.1352 121.663 87.3107 117.449C97.4863 113.234 106.183 106.096 112.302 96.9383C118.422 87.7806 121.688 77.014 121.688 66C121.688 51.2308 115.82 37.0665 105.377 26.623C94.9336 16.1796 80.7693 10.3125 66 10.3125Z" fill="black"/>
<path d="M66 131.813C52.9835 131.813 40.2594 127.953 29.4366 120.721C18.6138 113.49 10.1784 103.211 5.19721 91.1854C0.216016 79.1597 -1.08729 65.927 1.4521 53.1606C3.99149 40.3943 10.2595 28.6676 19.4636 19.4636C28.6676 10.2595 40.3943 3.99149 53.1606 1.4521C65.927 -1.08729 79.1597 0.216016 91.1854 5.19721C103.211 10.1784 113.49 18.6138 120.721 29.4366C127.953 40.2594 131.813 52.9835 131.813 66C131.813 83.4546 124.879 100.194 112.536 112.536C100.194 124.879 83.4546 131.813 66 131.813ZM66 10.3125C54.9861 10.3125 44.2195 13.5785 35.0617 19.6976C25.9039 25.8166 18.7663 34.5138 14.5515 44.6893C10.3366 54.8649 9.23383 66.0618 11.3825 76.8641C13.5313 87.6664 18.835 97.589 26.623 105.377C34.4111 113.165 44.3336 118.469 55.1359 120.618C65.9383 122.766 77.1352 121.663 87.3107 117.449C97.4863 113.234 106.183 106.096 112.302 96.9383C118.422 87.7806 121.688 77.014 121.688 66C121.688 51.2308 115.82 37.0665 105.377 26.623C94.9336 16.1796 80.7693 10.3125 66 10.3125Z" fill="url(#paint0_linear_27_414)"/>
<path d="M66 71.0625C60.9937 71.0625 56.0998 69.578 51.9371 66.7966C47.7745 64.0152 44.5302 60.0619 42.6143 55.4367C40.6985 50.8114 40.1972 45.7219 41.1739 40.8118C42.1506 35.9016 44.5614 31.3914 48.1014 27.8514C51.6414 24.3114 56.1516 21.9006 61.0618 20.9239C65.9719 19.9472 71.0614 20.4485 75.6867 22.3643C80.3119 24.2802 84.2652 27.5245 87.0466 31.6871C89.828 35.8498 91.3125 40.7437 91.3125 45.75C91.3125 52.4633 88.6457 58.9016 83.8987 63.6487C79.1516 68.3957 72.7133 71.0625 66 71.0625ZM66 30.5625C62.9962 30.5625 60.0599 31.4532 57.5623 33.1221C55.0647 34.7909 53.1181 37.1629 51.9686 39.938C50.8191 42.7132 50.5183 45.7669 51.1043 48.7129C51.6903 51.659 53.1368 54.3652 55.2608 56.4892C57.3848 58.6132 60.091 60.0597 63.0371 60.6457C65.9832 61.2317 69.0369 60.9309 71.812 59.7814C74.5872 58.6319 76.9591 56.6853 78.628 54.1877C80.2968 51.6902 81.1875 48.7538 81.1875 45.75C81.1875 41.722 79.5874 37.859 76.7392 35.0108C73.891 32.1626 70.028 30.5625 66 30.5625Z" fill="black"/>
<path d="M66 71.0625C60.9937 71.0625 56.0998 69.578 51.9371 66.7966C47.7745 64.0152 44.5302 60.0619 42.6143 55.4367C40.6985 50.8114 40.1972 45.7219 41.1739 40.8118C42.1506 35.9016 44.5614 31.3914 48.1014 27.8514C51.6414 24.3114 56.1516 21.9006 61.0618 20.9239C65.9719 19.9472 71.0614 20.4485 75.6867 22.3643C80.3119 24.2802 84.2652 27.5245 87.0466 31.6871C89.828 35.8498 91.3125 40.7437 91.3125 45.75C91.3125 52.4633 88.6457 58.9016 83.8987 63.6487C79.1516 68.3957 72.7133 71.0625 66 71.0625ZM66 30.5625C62.9962 30.5625 60.0599 31.4532 57.5623 33.1221C55.0647 34.7909 53.1181 37.1629 51.9686 39.938C50.8191 42.7132 50.5183 45.7669 51.1043 48.7129C51.6903 51.659 53.1368 54.3652 55.2608 56.4892C57.3848 58.6132 60.091 60.0597 63.0371 60.6457C65.9832 61.2317 69.0369 60.9309 71.812 59.7814C74.5872 58.6319 76.9591 56.6853 78.628 54.1877C80.2968 51.6902 81.1875 48.7538 81.1875 45.75C81.1875 41.722 79.5874 37.859 76.7392 35.0108C73.891 32.1626 70.028 30.5625 66 30.5625Z" fill="url(#paint1_linear_27_414)"/>
<path d="M114.347 106.5C113.644 106.505 112.948 106.363 112.303 106.084C111.658 105.806 111.078 105.395 110.601 104.88C105.227 99.0189 98.6957 94.3368 91.4194 91.13C84.1431 87.9232 76.2804 86.2615 68.3288 86.2502H63.6713C48.8493 86.2182 34.5967 91.9555 23.9307 102.248C22.9452 103.061 21.6887 103.471 20.4132 103.397C19.1377 103.322 17.9376 102.768 17.0536 101.846C16.1695 100.923 15.667 99.7006 15.6468 98.4231C15.6265 97.1456 16.0901 95.9077 16.9444 94.9577C29.4786 82.8428 46.2394 76.0876 63.6713 76.1252H68.3288C77.6753 76.1463 86.9165 78.1 95.4717 81.8636C104.027 85.6273 111.712 91.1194 118.043 97.9952C118.711 98.7164 119.156 99.6169 119.321 100.587C119.487 101.556 119.366 102.553 118.974 103.455C118.582 104.357 117.935 105.126 117.114 105.667C116.292 106.207 115.331 106.497 114.347 106.5Z" fill="black"/>
<path d="M114.347 106.5C113.644 106.505 112.948 106.363 112.303 106.084C111.658 105.806 111.078 105.395 110.601 104.88C105.227 99.0189 98.6957 94.3368 91.4194 91.13C84.1431 87.9232 76.2804 86.2615 68.3288 86.2502H63.6713C48.8493 86.2182 34.5967 91.9555 23.9307 102.248C22.9452 103.061 21.6887 103.471 20.4132 103.397C19.1377 103.322 17.9376 102.768 17.0536 101.846C16.1695 100.923 15.667 99.7006 15.6468 98.4231C15.6265 97.1456 16.0901 95.9077 16.9444 94.9577C29.4786 82.8428 46.2394 76.0876 63.6713 76.1252H68.3288C77.6753 76.1463 86.9165 78.1 95.4717 81.8636C104.027 85.6273 111.712 91.1194 118.043 97.9952C118.711 98.7164 119.156 99.6169 119.321 100.587C119.487 101.556 119.366 102.553 118.974 103.455C118.582 104.357 117.935 105.126 117.114 105.667C116.292 106.207 115.331 106.497 114.347 106.5Z" fill="url(#paint2_linear_27_414)"/>
<defs>
<linearGradient id="paint0_linear_27_414" x1="66" y1="0.1875" x2="66" y2="131.813" gradientUnits="userSpaceOnUse">
<stop offset="0.338542" stop-color="#015FCD"/>
<stop offset="1" stop-color="#0DD3F1"/>
</linearGradient>
<linearGradient id="paint1_linear_27_414" x1="66" y1="20.4375" x2="66" y2="71.0625" gradientUnits="userSpaceOnUse">
<stop offset="0.338542" stop-color="#015FCD"/>
<stop offset="1" stop-color="#0DD3F1"/>
</linearGradient>
<linearGradient id="paint2_linear_27_414" x1="67.5197" y1="76.125" x2="67.5197" y2="106.5" gradientUnits="userSpaceOnUse">
<stop offset="0.338542" stop-color="#015FCD"/>
<stop offset="1" stop-color="#0DD3F1"/>
</linearGradient>
</defs>
</svg>
