<svg width="128" height="147" viewBox="0 0 128 147" fill="none" xmlns="http://www.w3.org/2000/svg">
<path d="M110.487 43.6748L119.215 33.6142L98.165 9.35043L89.4369 19.411C85.9457 17.1622 82.3518 15.5051 78.5525 14.2032V0H48.7744V14.2032C44.9752 15.5051 41.3813 17.1622 37.89 19.411L29.162 9.35043L8.11196 33.6142L16.84 43.6748C14.889 47.699 13.4515 51.8416 12.322 56.2209H0V90.5453H12.322C13.4515 94.9246 14.889 99.0672 16.84 103.091L8.11196 113.152L29.162 137.416L37.89 127.355C41.3813 129.604 44.9752 131.261 48.7744 132.563V146.766H78.5525V132.563C82.3518 131.261 85.9457 129.604 89.4369 127.355L98.165 137.416L119.215 113.152L110.487 103.091C112.438 99.0672 113.875 94.9246 115.005 90.5453H127.327V56.2209H115.005C113.875 51.8416 112.335 47.699 110.487 43.6748ZM123.22 85.8109H111.822L111.411 87.5863C110.282 92.6758 108.536 97.6469 106.174 102.263L105.353 103.802L113.465 113.152L98.2677 130.669L90.1557 121.319L88.8208 122.266C84.8162 124.988 80.5035 127 76.0881 128.302L74.5479 128.776V142.032H52.9844V128.894L51.4442 128.42C47.0288 127.118 42.7161 125.106 38.7115 122.384L37.3766 121.437L29.2647 130.788L13.9649 113.152L22.0769 103.802L21.2554 102.263C18.8937 97.6469 17.1481 92.6758 16.0186 87.5863L15.6078 85.8109H4.10732V60.9553H15.5051L15.9159 59.1799C17.0454 54.0905 18.791 49.1193 21.1527 44.5033L21.9742 42.9646L13.8622 33.6142L29.0593 16.0969L37.1713 25.4474L38.5061 24.5005C42.5108 21.7782 46.8235 19.7661 51.2388 18.4641L52.7791 17.9907V4.73439H74.3425V17.8723L75.8828 18.3458C80.2981 19.6477 84.6108 21.6599 88.6155 24.3821L89.9503 25.329L98.0623 15.9786L113.259 33.4958L105.147 42.8463L105.969 44.3849C108.331 49.001 110.076 53.9721 111.206 59.0616L111.616 60.837H123.22V85.8109Z" fill="#3EBBC4"/>
<path d="M110.487 43.6748L119.215 33.6142L98.165 9.35043L89.4369 19.411C85.9457 17.1622 82.3518 15.5051 78.5525 14.2032V0H48.7744V14.2032C44.9752 15.5051 41.3813 17.1622 37.89 19.411L29.162 9.35043L8.11196 33.6142L16.84 43.6748C14.889 47.699 13.4515 51.8416 12.322 56.2209H0V90.5453H12.322C13.4515 94.9246 14.889 99.0672 16.84 103.091L8.11196 113.152L29.162 137.416L37.89 127.355C41.3813 129.604 44.9752 131.261 48.7744 132.563V146.766H78.5525V132.563C82.3518 131.261 85.9457 129.604 89.4369 127.355L98.165 137.416L119.215 113.152L110.487 103.091C112.438 99.0672 113.875 94.9246 115.005 90.5453H127.327V56.2209H115.005C113.875 51.8416 112.335 47.699 110.487 43.6748ZM123.22 85.8109H111.822L111.411 87.5863C110.282 92.6758 108.536 97.6469 106.174 102.263L105.353 103.802L113.465 113.152L98.2677 130.669L90.1557 121.319L88.8208 122.266C84.8162 124.988 80.5035 127 76.0881 128.302L74.5479 128.776V142.032H52.9844V128.894L51.4442 128.42C47.0288 127.118 42.7161 125.106 38.7115 122.384L37.3766 121.437L29.2647 130.788L13.9649 113.152L22.0769 103.802L21.2554 102.263C18.8937 97.6469 17.1481 92.6758 16.0186 87.5863L15.6078 85.8109H4.10732V60.9553H15.5051L15.9159 59.1799C17.0454 54.0905 18.791 49.1193 21.1527 44.5033L21.9742 42.9646L13.8622 33.6142L29.0593 16.0969L37.1713 25.4474L38.5061 24.5005C42.5108 21.7782 46.8235 19.7661 51.2388 18.4641L52.7791 17.9907V4.73439H74.3425V17.8723L75.8828 18.3458C80.2981 19.6477 84.6108 21.6599 88.6155 24.3821L89.9503 25.329L98.0623 15.9786L113.259 33.4958L105.147 42.8463L105.969 44.3849C108.331 49.001 110.076 53.9721 111.206 59.0616L111.616 60.837H123.22V85.8109Z" fill="url(#paint0_linear_26_162)"/>
<path d="M63.6635 35.5078C45.5913 35.5078 30.8049 52.5516 30.8049 73.383C30.8049 94.2143 45.5913 111.258 63.6635 111.258C81.7357 111.258 96.5221 94.2143 96.5221 73.383C96.5221 52.5516 81.7357 35.5078 63.6635 35.5078ZM63.6635 106.524C47.8503 106.524 34.9122 91.6104 34.9122 73.383C34.9122 55.1555 47.8503 40.2422 63.6635 40.2422C79.4767 40.2422 92.4147 55.1555 92.4147 73.383C92.4147 91.6104 79.4767 106.524 63.6635 106.524Z" fill="#3EBBC4"/>
<path d="M63.6635 35.5078C45.5913 35.5078 30.8049 52.5516 30.8049 73.383C30.8049 94.2143 45.5913 111.258 63.6635 111.258C81.7357 111.258 96.5221 94.2143 96.5221 73.383C96.5221 52.5516 81.7357 35.5078 63.6635 35.5078ZM63.6635 106.524C47.8503 106.524 34.9122 91.6104 34.9122 73.383C34.9122 55.1555 47.8503 40.2422 63.6635 40.2422C79.4767 40.2422 92.4147 55.1555 92.4147 73.383C92.4147 91.6104 79.4767 106.524 63.6635 106.524Z" fill="url(#paint1_linear_26_162)"/>
<path d="M63.5608 70.4242C61.8152 69.4773 60.3776 68.6488 60.3776 66.1633C60.3776 64.1512 61.9179 62.3758 63.6635 62.3758C64.6903 62.3758 65.9225 62.9676 66.5386 64.3879L70.3379 62.2574C69.5164 60.0086 67.6681 58.4699 65.7172 57.8781V55.866H61.6098V57.8781C58.4267 58.9433 56.1676 62.139 56.1676 66.4C56.1676 71.4895 59.0428 73.3832 62.842 75.277C64.793 76.2239 67.052 77.4075 67.052 80.4848C67.052 82.6153 65.4091 84.6274 63.5608 84.6274C61.7125 84.6274 60.583 83.5622 59.8642 82.0235C58.632 82.4969 57.3998 82.9704 56.2703 83.3255C56.8864 86.0477 58.9401 88.4149 61.7125 89.1251V91.4923H65.8198V89.1251C68.9003 88.0598 71.262 84.6274 71.262 80.6032C71.1594 75.1586 68.9003 73.1465 63.5608 70.4242Z" fill="#3EBBC4"/>
<path d="M63.5608 70.4242C61.8152 69.4773 60.3776 68.6488 60.3776 66.1633C60.3776 64.1512 61.9179 62.3758 63.6635 62.3758C64.6903 62.3758 65.9225 62.9676 66.5386 64.3879L70.3379 62.2574C69.5164 60.0086 67.6681 58.4699 65.7172 57.8781V55.866H61.6098V57.8781C58.4267 58.9433 56.1676 62.139 56.1676 66.4C56.1676 71.4895 59.0428 73.3832 62.842 75.277C64.793 76.2239 67.052 77.4075 67.052 80.4848C67.052 82.6153 65.4091 84.6274 63.5608 84.6274C61.7125 84.6274 60.583 83.5622 59.8642 82.0235C58.632 82.4969 57.3998 82.9704 56.2703 83.3255C56.8864 86.0477 58.9401 88.4149 61.7125 89.1251V91.4923H65.8198V89.1251C68.9003 88.0598 71.262 84.6274 71.262 80.6032C71.1594 75.1586 68.9003 73.1465 63.5608 70.4242Z" fill="url(#paint2_linear_26_162)"/>
<defs>
<linearGradient id="paint0_linear_26_162" x1="63.6635" y1="0" x2="63.6635" y2="146.766" gradientUnits="userSpaceOnUse">
<stop offset="0.338542" stop-color="#015FCD"/>
<stop offset="1" stop-color="#0DD3F1"/>
</linearGradient>
<linearGradient id="paint1_linear_26_162" x1="63.6635" y1="35.5078" x2="63.6635" y2="111.258" gradientUnits="userSpaceOnUse">
<stop offset="0.338542" stop-color="#015FCD"/>
<stop offset="1" stop-color="#0DD3F1"/>
</linearGradient>
<linearGradient id="paint2_linear_26_162" x1="63.7148" y1="55.866" x2="63.7148" y2="91.4923" gradientUnits="userSpaceOnUse">
<stop offset="0.338542" stop-color="#015FCD"/>
<stop offset="1" stop-color="#0DD3F1"/>
</linearGradient>
</defs>
</svg>
