<svg width="156" height="142" viewBox="0 0 156 142" fill="none" xmlns="http://www.w3.org/2000/svg">
<path d="M154.738 62.4371L121.019 38.0615C120.092 37.3908 118.866 37.297 117.847 37.8174C116.828 38.3384 116.187 39.3862 116.187 40.5306V58.9438L87.3003 38.0615C86.3731 37.3908 85.148 37.297 84.1291 37.8174C83.1096 38.3384 82.4688 39.3862 82.4688 40.5306V58.9438L53.5817 38.0615C52.6546 37.3908 51.4294 37.297 50.4099 37.8174C49.3911 38.3384 48.7497 39.3862 48.7497 40.5306V61.8591H42.453L38.4467 3.75943C38.3361 2.16165 37.0083 0.921875 35.4068 0.921875H19.4369C17.8355 0.921875 16.508 2.16134 16.3971 3.75943L12.3904 61.8594H3.04688C1.36409 61.8594 0 63.2235 0 64.9062V138.031C0 139.714 1.36409 141.078 3.04688 141.078H152.953C154.636 141.078 156 139.714 156 138.031V64.9062C156 63.9279 155.53 63.0096 154.738 62.4371ZM18.9193 55.7653H25.4213C27.1035 55.7653 28.4682 54.4009 28.4682 52.7184C28.4682 51.0357 27.1035 49.6716 25.4213 49.6716H19.3394L22.2809 7.01593H32.5629L36.3447 61.8591H18.4991L18.9193 55.7653ZM48.7494 74.0472H31.7816C30.0995 74.0472 28.7348 75.4116 28.7348 77.0941C28.7348 78.7765 30.0995 80.1409 31.7816 80.1409H48.7494V86.2344H31.7816C30.0995 86.2344 28.7348 87.5988 28.7348 89.2812C28.7348 90.964 30.0995 92.3281 31.7816 92.3281H48.7494V98.4219H40.6066C38.9244 98.4219 37.5597 99.7863 37.5597 101.469C37.5597 103.152 38.9244 104.516 40.6066 104.516H48.7494V110.609H31.7816C30.0995 110.609 28.7348 111.973 28.7348 113.656C28.7348 115.338 30.0995 116.703 31.7816 116.703H48.7494V122.796H31.7816C30.0995 122.796 28.7348 124.16 28.7348 125.843C28.7348 127.526 30.0995 128.89 31.7816 128.89H48.7494V134.984H6.09375V67.9528H15.2231C15.2268 67.9528 15.2307 67.9534 15.2344 67.9534H39.6088C39.6112 67.9537 39.6136 67.9537 39.6149 67.9534C39.6191 67.9534 39.6225 67.9528 39.6267 67.9528H48.7494V74.0472ZM149.906 134.984H54.8431V64.9059V46.4928L83.7303 67.3751C84.6574 68.0457 85.8826 68.1405 86.9021 67.6189C87.9209 67.0982 88.5623 66.0503 88.5623 64.9059V46.4928L117.449 67.3748C118.376 68.0458 119.601 68.1396 120.62 67.6189C121.639 67.0982 122.28 66.0503 122.28 64.9059V46.4928L149.906 66.4629V134.984Z" fill="black"/>
<path d="M154.738 62.4371L121.019 38.0615C120.092 37.3908 118.866 37.297 117.847 37.8174C116.828 38.3384 116.187 39.3862 116.187 40.5306V58.9438L87.3003 38.0615C86.3731 37.3908 85.148 37.297 84.1291 37.8174C83.1096 38.3384 82.4688 39.3862 82.4688 40.5306V58.9438L53.5817 38.0615C52.6546 37.3908 51.4294 37.297 50.4099 37.8174C49.3911 38.3384 48.7497 39.3862 48.7497 40.5306V61.8591H42.453L38.4467 3.75943C38.3361 2.16165 37.0083 0.921875 35.4068 0.921875H19.4369C17.8355 0.921875 16.508 2.16134 16.3971 3.75943L12.3904 61.8594H3.04688C1.36409 61.8594 0 63.2235 0 64.9062V138.031C0 139.714 1.36409 141.078 3.04688 141.078H152.953C154.636 141.078 156 139.714 156 138.031V64.9062C156 63.9279 155.53 63.0096 154.738 62.4371ZM18.9193 55.7653H25.4213C27.1035 55.7653 28.4682 54.4009 28.4682 52.7184C28.4682 51.0357 27.1035 49.6716 25.4213 49.6716H19.3394L22.2809 7.01593H32.5629L36.3447 61.8591H18.4991L18.9193 55.7653ZM48.7494 74.0472H31.7816C30.0995 74.0472 28.7348 75.4116 28.7348 77.0941C28.7348 78.7765 30.0995 80.1409 31.7816 80.1409H48.7494V86.2344H31.7816C30.0995 86.2344 28.7348 87.5988 28.7348 89.2812C28.7348 90.964 30.0995 92.3281 31.7816 92.3281H48.7494V98.4219H40.6066C38.9244 98.4219 37.5597 99.7863 37.5597 101.469C37.5597 103.152 38.9244 104.516 40.6066 104.516H48.7494V110.609H31.7816C30.0995 110.609 28.7348 111.973 28.7348 113.656C28.7348 115.338 30.0995 116.703 31.7816 116.703H48.7494V122.796H31.7816C30.0995 122.796 28.7348 124.16 28.7348 125.843C28.7348 127.526 30.0995 128.89 31.7816 128.89H48.7494V134.984H6.09375V67.9528H15.2231C15.2268 67.9528 15.2307 67.9534 15.2344 67.9534H39.6088C39.6112 67.9537 39.6136 67.9537 39.6149 67.9534C39.6191 67.9534 39.6225 67.9528 39.6267 67.9528H48.7494V74.0472ZM149.906 134.984H54.8431V64.9059V46.4928L83.7303 67.3751C84.6574 68.0457 85.8826 68.1405 86.9021 67.6189C87.9209 67.0982 88.5623 66.0503 88.5623 64.9059V46.4928L117.449 67.3748C118.376 68.0458 119.601 68.1396 120.62 67.6189C121.639 67.0982 122.28 66.0503 122.28 64.9059V46.4928L149.906 66.4629V134.984Z" fill="url(#paint0_linear_27_251)"/>
<path d="M31.7817 104.516H31.8536C33.5364 104.516 34.9005 103.152 34.9005 101.469C34.9005 99.7863 33.5364 98.4219 31.8536 98.4219H31.7817C30.0995 98.4219 28.7348 99.7863 28.7348 101.469C28.7348 103.151 30.0992 104.516 31.7817 104.516Z" fill="black"/>
<path d="M31.7817 104.516H31.8536C33.5364 104.516 34.9005 103.152 34.9005 101.469C34.9005 99.7863 33.5364 98.4219 31.8536 98.4219H31.7817C30.0995 98.4219 28.7348 99.7863 28.7348 101.469C28.7348 103.151 30.0992 104.516 31.7817 104.516Z" fill="url(#paint1_linear_27_251)"/>
<path d="M90.1869 86.2339H77.9988C76.316 86.2339 74.9519 87.5983 74.9519 89.2808V101.468C74.9519 103.15 76.316 104.515 77.9988 104.515H90.1869C91.8694 104.515 93.2338 103.15 93.2338 101.468V89.2808C93.2338 87.5986 91.8694 86.2339 90.1869 86.2339ZM87.14 98.4208H81.0457V92.3276H87.14V98.4208Z" fill="black"/>
<path d="M90.1869 86.2339H77.9988C76.316 86.2339 74.9519 87.5983 74.9519 89.2808V101.468C74.9519 103.15 76.316 104.515 77.9988 104.515H90.1869C91.8694 104.515 93.2338 103.15 93.2338 101.468V89.2808C93.2338 87.5986 91.8694 86.2339 90.1869 86.2339ZM87.14 98.4208H81.0457V92.3276H87.14V98.4208Z" fill="url(#paint2_linear_27_251)"/>
<path d="M111.515 89.2808V101.468C111.515 103.15 112.88 104.515 114.562 104.515H126.75C128.433 104.515 129.797 103.15 129.797 101.468V89.2808C129.797 87.5983 128.433 86.2339 126.75 86.2339H114.562C112.88 86.2339 111.515 87.5986 111.515 89.2808ZM117.609 92.3276H123.703V98.4208H117.609V92.3276Z" fill="black"/>
<path d="M111.515 89.2808V101.468C111.515 103.15 112.88 104.515 114.562 104.515H126.75C128.433 104.515 129.797 103.15 129.797 101.468V89.2808C129.797 87.5983 128.433 86.2339 126.75 86.2339H114.562C112.88 86.2339 111.515 87.5986 111.515 89.2808ZM117.609 92.3276H123.703V98.4208H117.609V92.3276Z" fill="url(#paint3_linear_27_251)"/>
<path d="M98.0149 122.796H97.943C96.2608 122.796 94.8961 124.16 94.8961 125.843C94.8961 127.526 96.2608 128.89 97.943 128.89H98.0149C99.6977 128.89 101.062 127.526 101.062 125.843C101.062 124.16 99.6977 122.796 98.0149 122.796Z" fill="black"/>
<path d="M98.0149 122.796H97.943C96.2608 122.796 94.8961 124.16 94.8961 125.843C94.8961 127.526 96.2608 128.89 97.943 128.89H98.0149C99.6977 128.89 101.062 127.526 101.062 125.843C101.062 124.16 99.6977 122.796 98.0149 122.796Z" fill="url(#paint4_linear_27_251)"/>
<path d="M89.189 122.796H77.9994C76.3166 122.796 74.9525 124.16 74.9525 125.843C74.9525 127.526 76.3166 128.89 77.9994 128.89H89.189C90.8712 128.89 92.2359 127.526 92.2359 125.843C92.2359 124.16 90.8712 122.796 89.189 122.796Z" fill="black"/>
<path d="M89.189 122.796H77.9994C76.3166 122.796 74.9525 124.16 74.9525 125.843C74.9525 127.526 76.3166 128.89 77.9994 128.89H89.189C90.8712 128.89 92.2359 127.526 92.2359 125.843C92.2359 124.16 90.8712 122.796 89.189 122.796Z" fill="url(#paint5_linear_27_251)"/>
<defs>
<linearGradient id="paint0_linear_27_251" x1="78" y1="0.921875" x2="78" y2="141.078" gradientUnits="userSpaceOnUse">
<stop offset="0.338542" stop-color="#015FCD"/>
<stop offset="1" stop-color="#0DD3F1"/>
</linearGradient>
<linearGradient id="paint1_linear_27_251" x1="31.8176" y1="98.4219" x2="31.8176" y2="104.516" gradientUnits="userSpaceOnUse">
<stop offset="0.338542" stop-color="#015FCD"/>
<stop offset="1" stop-color="#0DD3F1"/>
</linearGradient>
<linearGradient id="paint2_linear_27_251" x1="84.0928" y1="86.2339" x2="84.0928" y2="104.515" gradientUnits="userSpaceOnUse">
<stop offset="0.338542" stop-color="#015FCD"/>
<stop offset="1" stop-color="#0DD3F1"/>
</linearGradient>
<linearGradient id="paint3_linear_27_251" x1="120.656" y1="86.2339" x2="120.656" y2="104.515" gradientUnits="userSpaceOnUse">
<stop offset="0.338542" stop-color="#015FCD"/>
<stop offset="1" stop-color="#0DD3F1"/>
</linearGradient>
<linearGradient id="paint4_linear_27_251" x1="97.9789" y1="122.796" x2="97.9789" y2="128.89" gradientUnits="userSpaceOnUse">
<stop offset="0.338542" stop-color="#015FCD"/>
<stop offset="1" stop-color="#0DD3F1"/>
</linearGradient>
<linearGradient id="paint5_linear_27_251" x1="83.5942" y1="122.796" x2="83.5942" y2="128.89" gradientUnits="userSpaceOnUse">
<stop offset="0.338542" stop-color="#015FCD"/>
<stop offset="1" stop-color="#0DD3F1"/>
</linearGradient>
</defs>
</svg>
