<svg width="174" height="113" viewBox="0 0 174 113" fill="none" xmlns="http://www.w3.org/2000/svg">
<path d="M58.9524 52.8547C41.643 45.6583 26.4408 45.0104 12.4827 50.8308L11.6231 48.7056C26.1676 42.6582 41.9614 43.3288 59.8363 50.7417L58.9524 52.8547Z" fill="black"/>
<path d="M58.9524 52.8547C41.643 45.6583 26.4408 45.0104 12.4827 50.8308L11.6231 48.7056C26.1676 42.6582 41.9614 43.3288 59.8363 50.7417L58.9524 52.8547Z" fill="url(#paint0_linear_55_2)"/>
<path d="M59.8363 64.6351C41.9823 57.2326 26.1676 56.562 11.6231 62.5989L12.4844 64.7137C26.486 58.916 41.6656 59.5761 58.9541 66.7498L59.8363 64.6351Z" fill="black"/>
<path d="M59.8363 64.6351C41.9823 57.2326 26.1676 56.562 11.6231 62.5989L12.4844 64.7137C26.486 58.916 41.6656 59.5761 58.9541 66.7498L59.8363 64.6351Z" fill="url(#paint1_linear_55_2)"/>
<path d="M59.8363 36.8464C41.9823 29.4457 26.1676 28.7734 11.6231 34.7998L12.4844 36.9268C26.486 31.1169 41.6656 31.7753 58.9541 38.9629L59.8363 36.8464Z" fill="black"/>
<path d="M59.8363 36.8464C41.9823 29.4457 26.1676 28.7734 11.6231 34.7998L12.4844 36.9268C26.486 31.1169 41.6656 31.7753 58.9541 38.9629L59.8363 36.8464Z" fill="url(#paint2_linear_55_2)"/>
<path d="M136.846 64.2596V102.688C104.719 82.2672 76.942 100.97 76.942 104.164V36.12C76.942 24.034 92.8698 17.5082 112.492 17.5082C117.906 17.5082 122.98 18.3272 127.558 19.6561L134.174 13.0167C101.298 2.91974 76.0599 17.8365 72.5921 21.0549C67.6296 16.2334 39.0817 -0.468045 0 16.5634C0 16.8254 0 21.5316 0 28.728V109.986H59.3821C61.4214 111.748 66.2464 113 71.8891 113C77.5302 113 82.3569 111.748 84.4187 109.986H143.78V57.2901L136.846 64.2596ZM67.2903 104.164C67.2903 100.97 39.4906 82.2672 7.40885 102.686V23.4542C13.7528 19.7713 22.317 17.5082 31.7425 17.5082C51.3625 17.5082 67.2903 24.034 67.2903 36.12V104.164Z" fill="black"/>
<path d="M136.846 64.2596V102.688C104.719 82.2672 76.942 100.97 76.942 104.164V36.12C76.942 24.034 92.8698 17.5082 112.492 17.5082C117.906 17.5082 122.98 18.3272 127.558 19.6561L134.174 13.0167C101.298 2.91974 76.0599 17.8365 72.5921 21.0549C67.6296 16.2334 39.0817 -0.468045 0 16.5634C0 16.8254 0 21.5316 0 28.728V109.986H59.3821C61.4214 111.748 66.2464 113 71.8891 113C77.5302 113 82.3569 111.748 84.4187 109.986H143.78V57.2901L136.846 64.2596ZM67.2903 104.164C67.2903 100.97 39.4906 82.2672 7.40885 102.686V23.4542C13.7528 19.7713 22.317 17.5082 31.7425 17.5082C51.3625 17.5082 67.2903 24.034 67.2903 36.12V104.164Z" fill="url(#paint3_linear_55_2)"/>
<path d="M81.4503 50.7398L82.3116 52.8546C89.1306 50.0134 96.1549 48.4784 103.064 47.6594L104.061 45.2495C96.5394 46.0109 88.8818 47.6594 81.4503 50.7398Z" fill="black"/>
<path d="M81.4503 50.7398L82.3116 52.8546C89.1306 50.0134 96.1549 48.4784 103.064 47.6594L104.061 45.2495C96.5394 46.0109 88.8818 47.6594 81.4503 50.7398Z" fill="url(#paint4_linear_55_2)"/>
<path d="M81.4503 64.635L82.3116 66.7497C87.1818 64.738 92.1442 63.3497 97.1293 62.3596L98.1037 59.9253C92.5305 60.9381 86.9104 62.3718 81.4503 64.635Z" fill="black"/>
<path d="M81.4503 64.635L82.3116 66.7497C87.1818 64.738 92.1442 63.3497 97.1293 62.3596L98.1037 59.9253C92.5305 60.9381 86.9104 62.3718 81.4503 64.635Z" fill="url(#paint5_linear_55_2)"/>
<path d="M81.4503 36.8464L82.3116 38.9612C92.7793 34.6182 103.699 32.9016 113.939 33.3329L116.092 31.1728C104.945 30.3782 92.9151 32.0843 81.4503 36.8464Z" fill="black"/>
<path d="M81.4503 36.8464L82.3116 38.9612C92.7793 34.6182 103.699 32.9016 113.939 33.3329L116.092 31.1728C104.945 30.3782 92.9151 32.0843 81.4503 36.8464Z" fill="url(#paint6_linear_55_2)"/>
<path d="M172.984 14.1764L159.889 1.03389C158.1 -0.785729 154.497 -0.136113 151.914 2.46584L109.772 44.7712L105.33 55.6505C104.335 58.118 102.929 61.6542 101.705 64.6439C101.366 65.4751 100.98 66.4286 100.686 67.0991L98.624 72.2489C97.3329 75.4114 98.8728 76.9342 101.998 75.6716L107.141 73.5569C107.799 73.2845 108.773 72.8968 109.588 72.5563C112.579 71.3531 116.069 69.9072 118.559 68.9188L129.39 64.4727L171.554 22.1674C174.139 19.5759 174.774 15.9838 172.984 14.1764ZM117.249 65.6235L110.43 68.4089L105.852 63.8039L107.211 60.4371L108.617 56.9934L111.018 51.0351L123.14 63.2119L117.249 65.6235Z" fill="black"/>
<path d="M172.984 14.1764L159.889 1.03389C158.1 -0.785729 154.497 -0.136113 151.914 2.46584L109.772 44.7712L105.33 55.6505C104.335 58.118 102.929 61.6542 101.705 64.6439C101.366 65.4751 100.98 66.4286 100.686 67.0991L98.624 72.2489C97.3329 75.4114 98.8728 76.9342 101.998 75.6716L107.141 73.5569C107.799 73.2845 108.773 72.8968 109.588 72.5563C112.579 71.3531 116.069 69.9072 118.559 68.9188L129.39 64.4727L171.554 22.1674C174.139 19.5759 174.774 15.9838 172.984 14.1764ZM117.249 65.6235L110.43 68.4089L105.852 63.8039L107.211 60.4371L108.617 56.9934L111.018 51.0351L123.14 63.2119L117.249 65.6235Z" fill="url(#paint7_linear_55_2)"/>
<defs>
<linearGradient id="paint0_linear_55_2" x1="35.7297" y1="44.625" x2="35.7297" y2="52.8547" gradientUnits="userSpaceOnUse">
<stop offset="0.338542" stop-color="#015FCD"/>
<stop offset="1" stop-color="#0DD3F1"/>
</linearGradient>
<linearGradient id="paint1_linear_55_2" x1="35.7297" y1="58.5261" x2="35.7297" y2="66.7498" gradientUnits="userSpaceOnUse">
<stop offset="0.338542" stop-color="#015FCD"/>
<stop offset="1" stop-color="#0DD3F1"/>
</linearGradient>
<linearGradient id="paint2_linear_55_2" x1="35.7297" y1="30.7363" x2="35.7297" y2="38.9629" gradientUnits="userSpaceOnUse">
<stop offset="0.338542" stop-color="#015FCD"/>
<stop offset="1" stop-color="#0DD3F1"/>
</linearGradient>
<linearGradient id="paint3_linear_55_2" x1="71.89" y1="9.08081" x2="71.89" y2="113" gradientUnits="userSpaceOnUse">
<stop offset="0.338542" stop-color="#015FCD"/>
<stop offset="1" stop-color="#0DD3F1"/>
</linearGradient>
<linearGradient id="paint4_linear_55_2" x1="92.7559" y1="45.2495" x2="92.7559" y2="52.8546" gradientUnits="userSpaceOnUse">
<stop offset="0.338542" stop-color="#015FCD"/>
<stop offset="1" stop-color="#0DD3F1"/>
</linearGradient>
<linearGradient id="paint5_linear_55_2" x1="89.777" y1="59.9253" x2="89.777" y2="66.7497" gradientUnits="userSpaceOnUse">
<stop offset="0.338542" stop-color="#015FCD"/>
<stop offset="1" stop-color="#0DD3F1"/>
</linearGradient>
<linearGradient id="paint6_linear_55_2" x1="98.771" y1="30.9856" x2="98.771" y2="38.9612" gradientUnits="userSpaceOnUse">
<stop offset="0.338542" stop-color="#015FCD"/>
<stop offset="1" stop-color="#0DD3F1"/>
</linearGradient>
<linearGradient id="paint7_linear_55_2" x1="136.083" y1="0.000732422" x2="136.083" y2="76.1152" gradientUnits="userSpaceOnUse">
<stop offset="0.338542" stop-color="#015FCD"/>
<stop offset="1" stop-color="#0DD3F1"/>
</linearGradient>
</defs>
</svg>
