<svg width="126" height="117" viewBox="0 0 126 117" fill="none" xmlns="http://www.w3.org/2000/svg">
<path fill-rule="evenodd" clip-rule="evenodd" d="M17.0004 19.7952L36.4872 0.30835L43.2976 7.11882L16.9247 33.4918L0.331665 16.9014L7.22041 10.0126L17.0004 19.7952ZM125.175 21.8983H52.1304V11.5417H125.175V21.8983Z" fill="black"/>
<path fill-rule="evenodd" clip-rule="evenodd" d="M17.0004 19.7952L36.4872 0.30835L43.2976 7.11882L16.9247 33.4918L0.331665 16.9014L7.22041 10.0126L17.0004 19.7952ZM125.175 21.8983H52.1304V11.5417H125.175V21.8983Z" fill="url(#paint0_linear_27_324)"/>
<path fill-rule="evenodd" clip-rule="evenodd" d="M17.0004 19.7952L36.4872 0.30835L43.2976 7.11882L16.9247 33.4918L0.331665 16.9014L7.22041 10.0126L17.0004 19.7952ZM125.175 21.8983H52.1304V11.5417H125.175V21.8983Z" fill="black"/>
<path fill-rule="evenodd" clip-rule="evenodd" d="M17.0004 19.7952L36.4872 0.30835L43.2976 7.11882L16.9247 33.4918L0.331665 16.9014L7.22041 10.0126L17.0004 19.7952ZM125.175 21.8983H52.1304V11.5417H125.175V21.8983Z" fill="url(#paint1_linear_27_324)"/>
<path fill-rule="evenodd" clip-rule="evenodd" d="M17.0004 103.295L36.4872 83.8083L43.2976 90.6188L16.9247 116.992L0.331665 100.401L7.22041 93.5126L17.0004 103.295ZM125.175 105.398H52.1304V95.0417H125.175V105.398Z" fill="black"/>
<path fill-rule="evenodd" clip-rule="evenodd" d="M17.0004 103.295L36.4872 83.8083L43.2976 90.6188L16.9247 116.992L0.331665 100.401L7.22041 93.5126L17.0004 103.295ZM125.175 105.398H52.1304V95.0417H125.175V105.398Z" fill="url(#paint2_linear_27_324)"/>
<path fill-rule="evenodd" clip-rule="evenodd" d="M17.0004 103.295L36.4872 83.8083L43.2976 90.6188L16.9247 116.992L0.331665 100.401L7.22041 93.5126L17.0004 103.295ZM125.175 105.398H52.1304V95.0417H125.175V105.398Z" fill="black"/>
<path fill-rule="evenodd" clip-rule="evenodd" d="M17.0004 103.295L36.4872 83.8083L43.2976 90.6188L16.9247 116.992L0.331665 100.401L7.22041 93.5126L17.0004 103.295ZM125.175 105.398H52.1304V95.0417H125.175V105.398Z" fill="url(#paint3_linear_27_324)"/>
<path fill-rule="evenodd" clip-rule="evenodd" d="M17.0004 61.5452L36.4872 42.0583L43.2976 48.8688L16.9247 75.2418L0.331665 58.6514L7.22041 51.7626L17.0004 61.5452ZM125.175 63.6483H52.1304V53.2917H125.175V63.6483Z" fill="black"/>
<path fill-rule="evenodd" clip-rule="evenodd" d="M17.0004 61.5452L36.4872 42.0583L43.2976 48.8688L16.9247 75.2418L0.331665 58.6514L7.22041 51.7626L17.0004 61.5452ZM125.175 63.6483H52.1304V53.2917H125.175V63.6483Z" fill="url(#paint4_linear_27_324)"/>
<path fill-rule="evenodd" clip-rule="evenodd" d="M17.0004 61.5452L36.4872 42.0583L43.2976 48.8688L16.9247 75.2418L0.331665 58.6514L7.22041 51.7626L17.0004 61.5452ZM125.175 63.6483H52.1304V53.2917H125.175V63.6483Z" fill="black"/>
<path fill-rule="evenodd" clip-rule="evenodd" d="M17.0004 61.5452L36.4872 42.0583L43.2976 48.8688L16.9247 75.2418L0.331665 58.6514L7.22041 51.7626L17.0004 61.5452ZM125.175 63.6483H52.1304V53.2917H125.175V63.6483Z" fill="url(#paint5_linear_27_324)"/>
<defs>
<linearGradient id="paint0_linear_27_324" x1="62.7531" y1="0.30835" x2="62.7531" y2="33.4918" gradientUnits="userSpaceOnUse">
<stop offset="0.338542" stop-color="#015FCD"/>
<stop offset="1" stop-color="#0DD3F1"/>
</linearGradient>
<linearGradient id="paint1_linear_27_324" x1="62.7531" y1="0.30835" x2="62.7531" y2="33.4918" gradientUnits="userSpaceOnUse">
<stop offset="0.338542" stop-color="#015FCD"/>
<stop offset="1" stop-color="#0DD3F1"/>
</linearGradient>
<linearGradient id="paint2_linear_27_324" x1="62.7531" y1="83.8083" x2="62.7531" y2="116.992" gradientUnits="userSpaceOnUse">
<stop offset="0.338542" stop-color="#015FCD"/>
<stop offset="1" stop-color="#0DD3F1"/>
</linearGradient>
<linearGradient id="paint3_linear_27_324" x1="62.7531" y1="83.8083" x2="62.7531" y2="116.992" gradientUnits="userSpaceOnUse">
<stop offset="0.338542" stop-color="#015FCD"/>
<stop offset="1" stop-color="#0DD3F1"/>
</linearGradient>
<linearGradient id="paint4_linear_27_324" x1="62.7531" y1="42.0583" x2="62.7531" y2="75.2418" gradientUnits="userSpaceOnUse">
<stop offset="0.338542" stop-color="#015FCD"/>
<stop offset="1" stop-color="#0DD3F1"/>
</linearGradient>
<linearGradient id="paint5_linear_27_324" x1="62.7531" y1="42.0583" x2="62.7531" y2="75.2418" gradientUnits="userSpaceOnUse">
<stop offset="0.338542" stop-color="#015FCD"/>
<stop offset="1" stop-color="#0DD3F1"/>
</linearGradient>
</defs>
</svg>
