<svg width="612" height="498" viewBox="0 0 612 498" fill="none" xmlns="http://www.w3.org/2000/svg">
<path d="M325.125 76.875V38.625H363.375C373.932 38.625 382.5 30.057 382.5 19.5C382.5 8.943 373.932 0.375 363.375 0.375H248.625C238.068 0.375 229.5 8.943 229.5 19.5C229.5 30.057 238.068 38.625 248.625 38.625H286.875C286.875 38.625 286.741 78.443 286.875 76.875C126.837 86.801 0 220.332 0 382.875C0 398.404 0 391.443 0 402C0 412.557 8.568 421.125 19.125 421.125H592.875C603.432 421.125 612 412.557 612 402C612 391.443 612 399.609 612 382.875C612 220.332 485.163 86.801 325.125 76.875ZM592.875 459.375H19.125C8.568 459.375 0 467.943 0 478.5C0 489.057 8.568 497.625 19.125 497.625H592.875C603.432 497.625 612 489.057 612 478.5C612 467.943 603.432 459.375 592.875 459.375Z" fill="black"/>
<path d="M325.125 76.875V38.625H363.375C373.932 38.625 382.5 30.057 382.5 19.5C382.5 8.943 373.932 0.375 363.375 0.375H248.625C238.068 0.375 229.5 8.943 229.5 19.5C229.5 30.057 238.068 38.625 248.625 38.625H286.875C286.875 38.625 286.741 78.443 286.875 76.875C126.837 86.801 0 220.332 0 382.875C0 398.404 0 391.443 0 402C0 412.557 8.568 421.125 19.125 421.125H592.875C603.432 421.125 612 412.557 612 402C612 391.443 612 399.609 612 382.875C612 220.332 485.163 86.801 325.125 76.875ZM592.875 459.375H19.125C8.568 459.375 0 467.943 0 478.5C0 489.057 8.568 497.625 19.125 497.625H592.875C603.432 497.625 612 489.057 612 478.5C612 467.943 603.432 459.375 592.875 459.375Z" fill="url(#paint0_linear_88_25)"/>
<path d="M325.125 76.875V38.625H363.375C373.932 38.625 382.5 30.057 382.5 19.5C382.5 8.943 373.932 0.375 363.375 0.375H248.625C238.068 0.375 229.5 8.943 229.5 19.5C229.5 30.057 238.068 38.625 248.625 38.625H286.875C286.875 38.625 286.741 78.443 286.875 76.875C126.837 86.801 0 220.332 0 382.875C0 398.404 0 391.443 0 402C0 412.557 8.568 421.125 19.125 421.125H592.875C603.432 421.125 612 412.557 612 402C612 391.443 612 399.609 612 382.875C612 220.332 485.163 86.801 325.125 76.875ZM592.875 459.375H19.125C8.568 459.375 0 467.943 0 478.5C0 489.057 8.568 497.625 19.125 497.625H592.875C603.432 497.625 612 489.057 612 478.5C612 467.943 603.432 459.375 592.875 459.375Z" fill="url(#paint1_linear_88_25)"/>
<defs>
<linearGradient id="paint0_linear_88_25" x1="306" y1="0.375" x2="306" y2="497.625" gradientUnits="userSpaceOnUse">
<stop offset="0.338542" stop-color="#015FCD"/>
<stop offset="1" stop-color="#0DD3F1"/>
</linearGradient>
<linearGradient id="paint1_linear_88_25" x1="306" y1="0.375" x2="306" y2="497.625" gradientUnits="userSpaceOnUse">
<stop offset="0.338542" stop-color="#015FCD"/>
<stop offset="1" stop-color="#0DD3F1"/>
</linearGradient>
</defs>
</svg>
