<svg width="85" height="79" viewBox="0 0 85 79" fill="none" xmlns="http://www.w3.org/2000/svg">
<path d="M45.0999 78.7C66.7495 78.7 84.2999 61.1496 84.2999 39.5C84.2999 17.8504 66.7495 0.299988 45.0999 0.299988C23.4503 0.299988 5.8999 17.8504 5.8999 39.5C5.8999 61.1496 23.4503 78.7 45.0999 78.7Z" fill="#70C4FF"/>
<path d="M45.1003 0.299988C42.0003 0.299988 39.1003 0.699988 36.2003 1.29999C35.3003 3.29999 34.8003 5.39999 34.8003 7.49999C34.9003 11.9 38.6003 16.5 42.9003 15.9C45.3003 19.9 50.2003 21.8 54.9003 21.9C59.6003 22 64.1003 20.4 68.5003 18.9C70.5003 20.2 71.1003 22.9 71.0003 25.3C70.9003 27.7 70.2003 30.1 70.3003 32.5C70.4003 34.9 71.5003 37.5 73.8003 38.3C75.5003 38.9 77.4003 38.4 79.3003 38.3C81.0003 38.2 82.7003 38.5 84.3003 39.2C84.2003 17.7 66.7003 0.299988 45.1003 0.299988Z" fill="#85E57A"/>
<path d="M45.1003 0.299988C42.0003 0.299988 39.1003 0.699988 36.2003 1.29999C35.3003 3.29999 34.8003 5.39999 34.8003 7.49999C34.9003 11.9 38.6003 16.5 42.9003 15.9C45.3003 19.9 50.2003 21.8 54.9003 21.9C59.6003 22 64.1003 20.4 68.5003 18.9C70.5003 20.2 71.1003 22.9 71.0003 25.3C70.9003 27.7 70.2003 30.1 70.3003 32.5C70.4003 34.9 71.5003 37.5 73.8003 38.3C75.5003 38.9 77.4003 38.4 79.3003 38.3C81.0003 38.2 82.7003 38.5 84.3003 39.2C84.2003 17.7 66.7003 0.299988 45.1003 0.299988Z" fill="url(#paint0_linear_88_91)"/>
<path d="M45.9001 45.3C44.5001 43.5 44.3001 40.9 44.4001 38.6C44.5001 36.3 44.7001 33.8 43.8001 31.7C42.9001 29.6 40.3001 27.9 38.2001 28.8C37.8001 30.8 35.2001 31.3 33.1001 31.3C30.3001 31.4 27.4001 31.4 24.6001 31.5C22.6001 31.5 20.4001 31.6 18.6001 32.5C16.7001 33.3 15.2001 35.2 15.3001 37.3C15.4001 39 16.7001 40.4 18.3001 41.1C21.7001 42.6 23.0001 40.7 23.9001 44.6C24.6001 47.5 24.9001 50.6 27.7001 52.4C29.3001 53.4 31.5001 53.7 32.5001 55.3C33.4001 56.6 33.1001 58.4 32.6001 59.9C32.1001 61.4 31.4001 62.9 31.4001 64.4C31.4001 66 32.5001 67.7 34.0001 67.8C35.2001 67.8 36.2001 66.9 36.8001 65.8C37.9001 63.8 37.8001 61.5 38.1001 59.2C38.4001 57 39.2001 54.5 41.2001 53.6C42.6001 52.9 44.1001 53.1 45.6001 53C47.1001 52.8 48.7001 52.1 49.1001 50.7C49.7001 48.5 47.2001 47.1 45.9001 45.3Z" fill="#85E57A"/>
<path d="M45.9001 45.3C44.5001 43.5 44.3001 40.9 44.4001 38.6C44.5001 36.3 44.7001 33.8 43.8001 31.7C42.9001 29.6 40.3001 27.9 38.2001 28.8C37.8001 30.8 35.2001 31.3 33.1001 31.3C30.3001 31.4 27.4001 31.4 24.6001 31.5C22.6001 31.5 20.4001 31.6 18.6001 32.5C16.7001 33.3 15.2001 35.2 15.3001 37.3C15.4001 39 16.7001 40.4 18.3001 41.1C21.7001 42.6 23.0001 40.7 23.9001 44.6C24.6001 47.5 24.9001 50.6 27.7001 52.4C29.3001 53.4 31.5001 53.7 32.5001 55.3C33.4001 56.6 33.1001 58.4 32.6001 59.9C32.1001 61.4 31.4001 62.9 31.4001 64.4C31.4001 66 32.5001 67.7 34.0001 67.8C35.2001 67.8 36.2001 66.9 36.8001 65.8C37.9001 63.8 37.8001 61.5 38.1001 59.2C38.4001 57 39.2001 54.5 41.2001 53.6C42.6001 52.9 44.1001 53.1 45.6001 53C47.1001 52.8 48.7001 52.1 49.1001 50.7C49.7001 48.5 47.2001 47.1 45.9001 45.3Z" fill="url(#paint1_linear_88_91)"/>
<path d="M4.54682 34.175L0.246818 29.575C-0.153182 29.175 -0.0531828 28.475 0.446817 28.275L2.84682 27.075C3.14682 26.875 3.54682 26.975 3.74682 27.175L5.24682 28.375C5.54682 28.575 5.94682 28.575 6.24682 28.475L14.2468 23.775C14.7468 23.475 14.8468 22.775 14.3468 22.375L6.84682 16.175C6.34682 15.775 6.44682 15.075 7.04682 14.775L10.4468 13.075C10.7468 12.975 11.0468 12.975 11.2468 13.075L21.6468 18.975C21.9468 19.175 22.2468 19.075 22.5468 18.975L29.1468 14.975C30.5468 14.275 32.2468 14.075 33.7468 14.475C35.7468 15.075 35.9468 17.875 34.1468 18.875L4.54682 34.175Z" fill="#E8E7E6"/>
<path d="M4.54682 34.175L0.246818 29.575C-0.153182 29.175 -0.0531828 28.475 0.446817 28.275L2.84682 27.075C3.14682 26.875 3.54682 26.975 3.74682 27.175L5.24682 28.375C5.54682 28.575 5.94682 28.575 6.24682 28.475L14.2468 23.775C14.7468 23.475 14.8468 22.775 14.3468 22.375L6.84682 16.175C6.34682 15.775 6.44682 15.075 7.04682 14.775L10.4468 13.075C10.7468 12.975 11.0468 12.975 11.2468 13.075L21.6468 18.975C21.9468 19.175 22.2468 19.075 22.5468 18.975L29.1468 14.975C30.5468 14.275 32.2468 14.075 33.7468 14.475C35.7468 15.075 35.9468 17.875 34.1468 18.875L4.54682 34.175Z" fill="url(#paint2_linear_88_91)"/>
<defs>
<linearGradient id="paint0_linear_88_91" x1="59.5503" y1="0.299988" x2="59.5503" y2="39.2" gradientUnits="userSpaceOnUse">
<stop offset="0.338542" stop-color="#015FCD"/>
<stop offset="1" stop-color="#0DD3F1"/>
</linearGradient>
<linearGradient id="paint1_linear_88_91" x1="32.2435" y1="28.5535" x2="32.2435" y2="67.8" gradientUnits="userSpaceOnUse">
<stop offset="0.338542" stop-color="#015FCD"/>
<stop offset="1" stop-color="#0DD3F1"/>
</linearGradient>
<linearGradient id="paint2_linear_88_91" x1="17.6903" y1="13" x2="17.6903" y2="34.175" gradientUnits="userSpaceOnUse">
<stop offset="0.338542" stop-color="#015FCD"/>
<stop offset="1" stop-color="#0DD3F1"/>
</linearGradient>
</defs>
</svg>
