<svg width="20" height="20" viewBox="0 0 20 20" fill="none" xmlns="http://www.w3.org/2000/svg">
<path d="M9.98633 0.000114956C9.88341 0.00135592 9.78129 0.0184772 9.6836 0.050874L0.683596 3.05077C0.484438 3.11721 0.311241 3.24464 0.188548 3.415C0.0658556 3.58536 -0.000109772 3.79001 1.37122e-07 3.99995C1.37122e-07 8.2498 1.5878 11.9449 3.56055 14.7066C5.53329 17.4684 7.80412 19.3221 9.6836 19.9486C9.88897 20.0171 10.111 20.0171 10.3164 19.9486C12.1959 19.3221 14.4667 17.4684 16.4395 14.7066C18.4122 11.9449 20 8.2498 20 3.99995C20.0001 3.79001 19.9341 3.58536 19.8115 3.415C19.6888 3.24464 19.5156 3.11721 19.3164 3.05077L10.3164 0.050874C10.21 0.0155741 10.0984 -0.00158471 9.98633 0.000114956H9.98633ZM9.99608 4.00193C10.1036 4.00174 10.2104 4.0189 10.3125 4.05272L15.3183 5.72063C15.5158 5.78786 15.6873 5.91512 15.8088 6.08462C15.9303 6.25411 15.9958 6.45736 15.9961 6.66591C15.9961 9.13805 15.0769 11.2796 13.9375 12.8747C12.7981 14.4698 11.5253 15.5406 10.3125 15.9449C10.1089 16.0121 9.88912 16.0121 9.68553 15.9449C8.47273 15.5406 7.19995 14.4698 6.06053 12.8747C4.92112 11.2796 4.00194 9.13805 4.00194 6.66591C4.00223 6.45736 4.06772 6.25411 4.18925 6.08462C4.31077 5.91512 4.48224 5.78786 4.67967 5.72063L9.68553 4.05272C9.78572 4.01951 9.89053 4.00237 9.99608 4.00193H9.99608ZM10.0039 6.05264L6.22265 7.31626C6.38218 8.98094 6.87126 10.5578 7.69336 11.7087C8.52495 12.8729 9.45462 13.4869 10.0039 13.7672C10.5539 13.4857 11.4842 12.871 12.3144 11.7087C13.1369 10.5573 13.6241 8.98184 13.7832 7.31626L10.0039 6.05264Z" fill="black"/>
<path d="M9.98633 0.000114956C9.88341 0.00135592 9.78129 0.0184772 9.6836 0.050874L0.683596 3.05077C0.484438 3.11721 0.311241 3.24464 0.188548 3.415C0.0658556 3.58536 -0.000109772 3.79001 1.37122e-07 3.99995C1.37122e-07 8.2498 1.5878 11.9449 3.56055 14.7066C5.53329 17.4684 7.80412 19.3221 9.6836 19.9486C9.88897 20.0171 10.111 20.0171 10.3164 19.9486C12.1959 19.3221 14.4667 17.4684 16.4395 14.7066C18.4122 11.9449 20 8.2498 20 3.99995C20.0001 3.79001 19.9341 3.58536 19.8115 3.415C19.6888 3.24464 19.5156 3.11721 19.3164 3.05077L10.3164 0.050874C10.21 0.0155741 10.0984 -0.00158471 9.98633 0.000114956H9.98633ZM9.99608 4.00193C10.1036 4.00174 10.2104 4.0189 10.3125 4.05272L15.3183 5.72063C15.5158 5.78786 15.6873 5.91512 15.8088 6.08462C15.9303 6.25411 15.9958 6.45736 15.9961 6.66591C15.9961 9.13805 15.0769 11.2796 13.9375 12.8747C12.7981 14.4698 11.5253 15.5406 10.3125 15.9449C10.1089 16.0121 9.88912 16.0121 9.68553 15.9449C8.47273 15.5406 7.19995 14.4698 6.06053 12.8747C4.92112 11.2796 4.00194 9.13805 4.00194 6.66591C4.00223 6.45736 4.06772 6.25411 4.18925 6.08462C4.31077 5.91512 4.48224 5.78786 4.67967 5.72063L9.68553 4.05272C9.78572 4.01951 9.89053 4.00237 9.99608 4.00193H9.99608ZM10.0039 6.05264L6.22265 7.31626C6.38218 8.98094 6.87126 10.5578 7.69336 11.7087C8.52495 12.8729 9.45462 13.4869 10.0039 13.7672C10.5539 13.4857 11.4842 12.871 12.3144 11.7087C13.1369 10.5573 13.6241 8.98184 13.7832 7.31626L10.0039 6.05264Z" fill="url(#paint0_linear_88_88)"/>
<defs>
<linearGradient id="paint0_linear_88_88" x1="10" y1="0" x2="10" y2="20" gradientUnits="userSpaceOnUse">
<stop offset="0.338542" stop-color="#015FCD"/>
<stop offset="1" stop-color="#0DD3F1"/>
</linearGradient>
</defs>
</svg>
