<svg width="80" height="35" viewBox="0 0 80 35" fill="none" xmlns="http://www.w3.org/2000/svg">
<path d="M15.532 34.706C11.555 34.706 8.319 31.464 8.319 27.509C8.319 23.511 11.555 20.285 15.532 20.285C19.519 20.285 22.758 23.511 22.758 27.509C22.758 31.463 19.519 34.706 15.532 34.706ZM15.532 23.604C13.404 23.604 11.656 25.354 11.656 27.487C11.656 29.616 13.404 31.366 15.532 31.366C17.673 31.366 19.418 29.616 19.418 27.487C19.418 25.354 17.673 23.604 15.532 23.604ZM64.137 34.706C60.15 34.706 56.918 31.464 56.918 27.509C56.918 23.511 60.149 20.285 64.137 20.285C68.114 20.285 71.345 23.511 71.345 27.509C71.345 31.463 68.113 34.706 64.137 34.706ZM64.137 23.604C61.993 23.604 60.242 25.354 60.242 27.487C60.242 29.616 61.993 31.366 64.137 31.366C66.276 31.366 68.021 29.616 68.021 27.487C68.021 25.354 66.275 23.604 64.137 23.604ZM78.138 22.091C78.138 15.08 73.773 14.249 73.773 14.249C67.347 13.337 56.277 12.869 56.277 12.869C55.261 11.103 50.57 0.830017 47.837 0.830017C46.926 0.830017 27.329 0.830017 23.862 0.830017C20.39 0.830017 14.695 10.854 13.449 13.115C13.449 13.115 9.089 13.873 7.033 14.334C5.891 14.599 2.732 14.658 2.732 23.489H0V27.486H6.654C6.654 22.578 10.636 18.601 15.532 18.601C20.446 18.601 24.418 22.578 24.418 27.486H55.245C55.245 22.578 59.212 18.601 64.137 18.601C69.035 18.601 73.012 22.578 73.012 27.486H79.536V22.09H78.138V22.091ZM35.589 12.191H21.751C23.623 6.36002 27.09 2.19702 28.552 2.19702C30.393 2.19702 35.589 2.19702 35.589 2.19702V12.191ZM38.168 12.191V2.19702C38.168 2.19702 45.309 2.19702 47.142 2.19702C48.996 2.19702 53.035 10.658 54.174 12.822L38.168 12.191Z" fill="#010002"/>
<path d="M15.532 34.706C11.555 34.706 8.319 31.464 8.319 27.509C8.319 23.511 11.555 20.285 15.532 20.285C19.519 20.285 22.758 23.511 22.758 27.509C22.758 31.463 19.519 34.706 15.532 34.706ZM15.532 23.604C13.404 23.604 11.656 25.354 11.656 27.487C11.656 29.616 13.404 31.366 15.532 31.366C17.673 31.366 19.418 29.616 19.418 27.487C19.418 25.354 17.673 23.604 15.532 23.604ZM64.137 34.706C60.15 34.706 56.918 31.464 56.918 27.509C56.918 23.511 60.149 20.285 64.137 20.285C68.114 20.285 71.345 23.511 71.345 27.509C71.345 31.463 68.113 34.706 64.137 34.706ZM64.137 23.604C61.993 23.604 60.242 25.354 60.242 27.487C60.242 29.616 61.993 31.366 64.137 31.366C66.276 31.366 68.021 29.616 68.021 27.487C68.021 25.354 66.275 23.604 64.137 23.604ZM78.138 22.091C78.138 15.08 73.773 14.249 73.773 14.249C67.347 13.337 56.277 12.869 56.277 12.869C55.261 11.103 50.57 0.830017 47.837 0.830017C46.926 0.830017 27.329 0.830017 23.862 0.830017C20.39 0.830017 14.695 10.854 13.449 13.115C13.449 13.115 9.089 13.873 7.033 14.334C5.891 14.599 2.732 14.658 2.732 23.489H0V27.486H6.654C6.654 22.578 10.636 18.601 15.532 18.601C20.446 18.601 24.418 22.578 24.418 27.486H55.245C55.245 22.578 59.212 18.601 64.137 18.601C69.035 18.601 73.012 22.578 73.012 27.486H79.536V22.09H78.138V22.091ZM35.589 12.191H21.751C23.623 6.36002 27.09 2.19702 28.552 2.19702C30.393 2.19702 35.589 2.19702 35.589 2.19702V12.191ZM38.168 12.191V2.19702C38.168 2.19702 45.309 2.19702 47.142 2.19702C48.996 2.19702 53.035 10.658 54.174 12.822L38.168 12.191Z" fill="url(#paint0_linear_88_66)"/>
<defs>
<linearGradient id="paint0_linear_88_66" x1="39.768" y1="0.830017" x2="39.768" y2="34.706" gradientUnits="userSpaceOnUse">
<stop offset="0.338542" stop-color="#015FCD"/>
<stop offset="1" stop-color="#0DD3F1"/>
</linearGradient>
</defs>
</svg>
