<svg width="478" height="478" viewBox="0 0 478 478" fill="none" xmlns="http://www.w3.org/2000/svg">
<path d="M475.009 380.316L472.634 373.16C467.009 356.441 448.572 339.004 431.634 334.41L368.946 317.285C351.946 312.66 327.696 318.879 315.258 331.316L292.57 354.004C210.117 331.724 145.461 267.066 123.211 184.629L145.9 161.94C158.338 149.502 164.556 125.284 159.931 108.284L142.837 45.565C138.212 28.596 120.743 10.1591 104.056 4.59605L96.8999 2.19005C80.1809 -3.37295 56.3369 2.25305 43.8999 14.6901L9.96186 48.659C3.89886 54.6901 0.0238637 71.9401 0.0238637 72.0031C-1.16314 179.753 41.0869 283.565 117.305 359.784C193.336 435.815 296.759 478.003 404.196 477.097C404.758 477.097 422.508 473.284 428.571 467.252L462.509 433.314C474.946 420.878 480.571 397.035 475.009 380.316Z" fill="black"/>
<path d="M475.009 380.316L472.634 373.16C467.009 356.441 448.572 339.004 431.634 334.41L368.946 317.285C351.946 312.66 327.696 318.879 315.258 331.316L292.57 354.004C210.117 331.724 145.461 267.066 123.211 184.629L145.9 161.94C158.338 149.502 164.556 125.284 159.931 108.284L142.837 45.565C138.212 28.596 120.743 10.1591 104.056 4.59605L96.8999 2.19005C80.1809 -3.37295 56.3369 2.25305 43.8999 14.6901L9.96186 48.659C3.89886 54.6901 0.0238637 71.9401 0.0238637 72.0031C-1.16314 179.753 41.0869 283.565 117.305 359.784C193.336 435.815 296.759 478.003 404.196 477.097C404.758 477.097 422.508 473.284 428.571 467.252L462.509 433.314C474.946 420.878 480.571 397.035 475.009 380.316Z" fill="url(#paint0_linear_88_157)"/>
<defs>
<linearGradient id="paint0_linear_88_157" x1="238.578" y1="0.0429687" x2="238.578" y2="477.111" gradientUnits="userSpaceOnUse">
<stop offset="0.338542" stop-color="#015FCD"/>
<stop offset="1" stop-color="#0DD3F1"/>
</linearGradient>
</defs>
</svg>
