<svg width="60" height="60" viewBox="0 0 60 60" fill="none" xmlns="http://www.w3.org/2000/svg">
<path d="M43 7H19C18.7348 7 18.4804 7.10536 18.2929 7.29289C18.1054 7.48043 18 7.73478 18 8V14C18 14.2652 18.1054 14.5196 18.2929 14.7071C18.4804 14.8946 18.7348 15 19 15H43C43.2652 15 43.5196 14.8946 43.7071 14.7071C43.8946 14.5196 44 14.2652 44 14V8C44 7.73478 43.8946 7.48043 43.7071 7.29289C43.5196 7.10536 43.2652 7 43 7ZM42 13H20V9H42V13Z" fill="black"/>
<path d="M43 7H19C18.7348 7 18.4804 7.10536 18.2929 7.29289C18.1054 7.48043 18 7.73478 18 8V14C18 14.2652 18.1054 14.5196 18.2929 14.7071C18.4804 14.8946 18.7348 15 19 15H43C43.2652 15 43.5196 14.8946 43.7071 14.7071C43.8946 14.5196 44 14.2652 44 14V8C44 7.73478 43.8946 7.48043 43.7071 7.29289C43.5196 7.10536 43.2652 7 43 7ZM42 13H20V9H42V13Z" fill="url(#paint0_linear_88_45)"/>
<path d="M42 20H23C22.7348 20 22.4804 20.1054 22.2929 20.2929C22.1054 20.4804 22 20.7348 22 21C22 21.2652 22.1054 21.5196 22.2929 21.7071C22.4804 21.8946 22.7348 22 23 22H42C42.2652 22 42.5196 21.8946 42.7071 21.7071C42.8946 21.5196 43 21.2652 43 21C43 20.7348 42.8946 20.4804 42.7071 20.2929C42.5196 20.1054 42.2652 20 42 20Z" fill="black"/>
<path d="M42 20H23C22.7348 20 22.4804 20.1054 22.2929 20.2929C22.1054 20.4804 22 20.7348 22 21C22 21.2652 22.1054 21.5196 22.2929 21.7071C22.4804 21.8946 22.7348 22 23 22H42C42.2652 22 42.5196 21.8946 42.7071 21.7071C42.8946 21.5196 43 21.2652 43 21C43 20.7348 42.8946 20.4804 42.7071 20.2929C42.5196 20.1054 42.2652 20 42 20Z" fill="url(#paint1_linear_88_45)"/>
<path d="M6 30V35C6 35.2652 6.10536 35.5196 6.29289 35.7071C6.48043 35.8946 6.73478 36 7 36H23C23.2652 36 23.5196 35.8946 23.7071 35.7071C23.8946 35.5196 24 35.2652 24 35V30C24 29.7348 23.8946 29.4804 23.7071 29.2929C23.5196 29.1054 23.2652 29 23 29H7C6.73478 29 6.48043 29.1054 6.29289 29.2929C6.10536 29.4804 6 29.7348 6 30ZM8 31H22V34H8V31Z" fill="black"/>
<path d="M6 30V35C6 35.2652 6.10536 35.5196 6.29289 35.7071C6.48043 35.8946 6.73478 36 7 36H23C23.2652 36 23.5196 35.8946 23.7071 35.7071C23.8946 35.5196 24 35.2652 24 35V30C24 29.7348 23.8946 29.4804 23.7071 29.2929C23.5196 29.1054 23.2652 29 23 29H7C6.73478 29 6.48043 29.1054 6.29289 29.2929C6.10536 29.4804 6 29.7348 6 30ZM8 31H22V34H8V31Z" fill="url(#paint2_linear_88_45)"/>
<path d="M23 39H7C6.73478 39 6.48043 39.1054 6.29289 39.2929C6.10536 39.4804 6 39.7348 6 40V54C6 54.2652 6.10536 54.5196 6.29289 54.7071C6.48043 54.8946 6.73478 55 7 55H23C23.2652 55 23.5196 54.8946 23.7071 54.7071C23.8946 54.5196 24 54.2652 24 54V40C24 39.7348 23.8946 39.4804 23.7071 39.2929C23.5196 39.1054 23.2652 39 23 39ZM14 53H8V48H14V53ZM14 46H8V41H14V46ZM22 53H16V48H22V53ZM22 46H16V41H22V46Z" fill="black"/>
<path d="M23 39H7C6.73478 39 6.48043 39.1054 6.29289 39.2929C6.10536 39.4804 6 39.7348 6 40V54C6 54.2652 6.10536 54.5196 6.29289 54.7071C6.48043 54.8946 6.73478 55 7 55H23C23.2652 55 23.5196 54.8946 23.7071 54.7071C23.8946 54.5196 24 54.2652 24 54V40C24 39.7348 23.8946 39.4804 23.7071 39.2929C23.5196 39.1054 23.2652 39 23 39ZM14 53H8V48H14V53ZM14 46H8V41H14V46ZM22 53H16V48H22V53ZM22 46H16V41H22V46Z" fill="url(#paint3_linear_88_45)"/>
<path d="M60 43C59.9991 42.2046 59.6828 41.4421 59.1204 40.8796C58.5579 40.3172 57.7954 40.0009 57 40H51V1C51 0.734784 50.8946 0.48043 50.7071 0.292893C50.5196 0.105357 50.2652 0 50 0H12C11.7348 0 11.4804 0.105357 11.2929 0.292893C11.1054 0.48043 11 0.734784 11 1V24H1C0.734784 24 0.48043 24.1054 0.292893 24.2929C0.105357 24.4804 0 24.7348 0 25V59C0 59.2652 0.105357 59.5196 0.292893 59.7071C0.48043 59.8946 0.734784 60 1 60H29C29.2652 60 29.5196 59.8946 29.7071 59.7071C29.8946 59.5196 30 59.2652 30 59V54H34.1843C34.0657 54.3202 34.0034 54.6585 34 55V57C34.0009 57.7954 34.3172 58.5579 34.8796 59.1204C35.4421 59.6828 36.2046 59.9991 37 60H45C45.7405 59.9978 46.4535 59.7197 47 59.22C47.5465 59.7197 48.2595 59.9978 49 60H57C57.7954 59.9991 58.5579 59.6828 59.1204 59.1204C59.6828 58.5579 59.9991 57.7954 60 57V55C59.9978 54.2595 59.7197 53.5465 59.22 53C59.7197 52.4535 59.9978 51.7405 60 51V49C59.9978 48.2595 59.7197 47.5465 59.22 47C59.7197 46.4535 59.9978 45.7405 60 45V43ZM28 53V58H2V26H28V53ZM46 57C45.9998 57.2652 45.8944 57.5194 45.7069 57.7069C45.5194 57.8944 45.2652 57.9998 45 58H37C36.7348 57.9998 36.4806 57.8944 36.2931 57.7069C36.1056 57.5194 36.0002 57.2652 36 57V55C36.0002 54.7348 36.1056 54.4806 36.2931 54.2931C36.4806 54.1056 36.7348 54.0002 37 54H45C45.2652 54.0002 45.5194 54.1056 45.7069 54.2931C45.8944 54.4806 45.9998 54.7348 46 55V57ZM46 51C45.9998 51.2652 45.8944 51.5194 45.7069 51.7069C45.5194 51.8944 45.2652 51.9998 45 52H37C36.7348 51.9998 36.4806 51.8944 36.2931 51.7069C36.1056 51.5194 36.0002 51.2652 36 51V49C36.0002 48.7348 36.1056 48.4806 36.2931 48.2931C36.4806 48.1056 36.7348 48.0002 37 48H45C45.2652 48.0002 45.5194 48.1056 45.7069 48.2931C45.8944 48.4806 45.9998 48.7348 46 49V51ZM46 45C45.9998 45.2652 45.8944 45.5194 45.7069 45.7069C45.5194 45.8944 45.2652 45.9998 45 46H37C36.7348 45.9998 36.4806 45.8944 36.2931 45.7069C36.1056 45.5194 36.0002 45.2652 36 45V43C36.0002 42.7348 36.1056 42.4806 36.2931 42.2931C36.4806 42.1056 36.7348 42.0002 37 42H45C45.2652 42.0002 45.5194 42.1056 45.7069 42.2931C45.8944 42.4806 45.9998 42.7348 46 43V45ZM45 40H37C36.2046 40.0009 35.4421 40.3172 34.8796 40.8796C34.3172 41.4421 34.0009 42.2046 34 43V45C34.0022 45.7405 34.2803 46.4535 34.78 47C34.2803 47.5465 34.0022 48.2595 34 49V51C34.0034 51.3415 34.0658 51.6798 34.1843 52H30V36H42C42.2652 36 42.5196 35.8946 42.7071 35.7071C42.8946 35.5196 43 35.2652 43 35C43 34.7348 42.8946 34.4804 42.7071 34.2929C42.5196 34.1054 42.2652 34 42 34H30V29H42C42.2652 29 42.5196 28.8946 42.7071 28.7071C42.8946 28.5196 43 28.2652 43 28C43 27.7348 42.8946 27.4804 42.7071 27.2929C42.5196 27.1054 42.2652 27 42 27H30V25C30 24.7348 29.8946 24.4804 29.7071 24.2929C29.5196 24.1054 29.2652 24 29 24H13V2H49V40C48.2595 40.0022 47.5465 40.2803 47 40.78C46.4535 40.2803 45.7405 40.0022 45 40V40ZM58 57C57.9998 57.2652 57.8944 57.5194 57.7069 57.7069C57.5194 57.8944 57.2652 57.9998 57 58H49C48.7348 57.9998 48.4806 57.8944 48.2931 57.7069C48.1056 57.5194 48.0002 57.2652 48 57V55C48.0002 54.7348 48.1056 54.4806 48.2931 54.2931C48.4806 54.1056 48.7348 54.0002 49 54H57C57.2652 54.0002 57.5194 54.1056 57.7069 54.2931C57.8944 54.4806 57.9998 54.7348 58 55V57ZM58 51C57.9998 51.2652 57.8944 51.5194 57.7069 51.7069C57.5194 51.8944 57.2652 51.9998 57 52H49C48.7348 51.9998 48.4806 51.8944 48.2931 51.7069C48.1056 51.5194 48.0002 51.2652 48 51V49C48.0002 48.7348 48.1056 48.4806 48.2931 48.2931C48.4806 48.1056 48.7348 48.0002 49 48H57C57.2652 48.0002 57.5194 48.1056 57.7069 48.2931C57.8944 48.4806 57.9998 48.7348 58 49V51ZM58 45C57.9998 45.2652 57.8944 45.5194 57.7069 45.7069C57.5194 45.8944 57.2652 45.9998 57 46H49C48.7348 45.9998 48.4806 45.8944 48.2931 45.7069C48.1056 45.5194 48.0002 45.2652 48 45V43C48.0002 42.7348 48.1056 42.4806 48.2931 42.2931C48.4806 42.1056 48.7348 42.0002 49 42H57C57.2652 42.0002 57.5194 42.1056 57.7069 42.2931C57.8944 42.4806 57.9998 42.7348 58 43V45Z" fill="black"/>
<path d="M60 43C59.9991 42.2046 59.6828 41.4421 59.1204 40.8796C58.5579 40.3172 57.7954 40.0009 57 40H51V1C51 0.734784 50.8946 0.48043 50.7071 0.292893C50.5196 0.105357 50.2652 0 50 0H12C11.7348 0 11.4804 0.105357 11.2929 0.292893C11.1054 0.48043 11 0.734784 11 1V24H1C0.734784 24 0.48043 24.1054 0.292893 24.2929C0.105357 24.4804 0 24.7348 0 25V59C0 59.2652 0.105357 59.5196 0.292893 59.7071C0.48043 59.8946 0.734784 60 1 60H29C29.2652 60 29.5196 59.8946 29.7071 59.7071C29.8946 59.5196 30 59.2652 30 59V54H34.1843C34.0657 54.3202 34.0034 54.6585 34 55V57C34.0009 57.7954 34.3172 58.5579 34.8796 59.1204C35.4421 59.6828 36.2046 59.9991 37 60H45C45.7405 59.9978 46.4535 59.7197 47 59.22C47.5465 59.7197 48.2595 59.9978 49 60H57C57.7954 59.9991 58.5579 59.6828 59.1204 59.1204C59.6828 58.5579 59.9991 57.7954 60 57V55C59.9978 54.2595 59.7197 53.5465 59.22 53C59.7197 52.4535 59.9978 51.7405 60 51V49C59.9978 48.2595 59.7197 47.5465 59.22 47C59.7197 46.4535 59.9978 45.7405 60 45V43ZM28 53V58H2V26H28V53ZM46 57C45.9998 57.2652 45.8944 57.5194 45.7069 57.7069C45.5194 57.8944 45.2652 57.9998 45 58H37C36.7348 57.9998 36.4806 57.8944 36.2931 57.7069C36.1056 57.5194 36.0002 57.2652 36 57V55C36.0002 54.7348 36.1056 54.4806 36.2931 54.2931C36.4806 54.1056 36.7348 54.0002 37 54H45C45.2652 54.0002 45.5194 54.1056 45.7069 54.2931C45.8944 54.4806 45.9998 54.7348 46 55V57ZM46 51C45.9998 51.2652 45.8944 51.5194 45.7069 51.7069C45.5194 51.8944 45.2652 51.9998 45 52H37C36.7348 51.9998 36.4806 51.8944 36.2931 51.7069C36.1056 51.5194 36.0002 51.2652 36 51V49C36.0002 48.7348 36.1056 48.4806 36.2931 48.2931C36.4806 48.1056 36.7348 48.0002 37 48H45C45.2652 48.0002 45.5194 48.1056 45.7069 48.2931C45.8944 48.4806 45.9998 48.7348 46 49V51ZM46 45C45.9998 45.2652 45.8944 45.5194 45.7069 45.7069C45.5194 45.8944 45.2652 45.9998 45 46H37C36.7348 45.9998 36.4806 45.8944 36.2931 45.7069C36.1056 45.5194 36.0002 45.2652 36 45V43C36.0002 42.7348 36.1056 42.4806 36.2931 42.2931C36.4806 42.1056 36.7348 42.0002 37 42H45C45.2652 42.0002 45.5194 42.1056 45.7069 42.2931C45.8944 42.4806 45.9998 42.7348 46 43V45ZM45 40H37C36.2046 40.0009 35.4421 40.3172 34.8796 40.8796C34.3172 41.4421 34.0009 42.2046 34 43V45C34.0022 45.7405 34.2803 46.4535 34.78 47C34.2803 47.5465 34.0022 48.2595 34 49V51C34.0034 51.3415 34.0658 51.6798 34.1843 52H30V36H42C42.2652 36 42.5196 35.8946 42.7071 35.7071C42.8946 35.5196 43 35.2652 43 35C43 34.7348 42.8946 34.4804 42.7071 34.2929C42.5196 34.1054 42.2652 34 42 34H30V29H42C42.2652 29 42.5196 28.8946 42.7071 28.7071C42.8946 28.5196 43 28.2652 43 28C43 27.7348 42.8946 27.4804 42.7071 27.2929C42.5196 27.1054 42.2652 27 42 27H30V25C30 24.7348 29.8946 24.4804 29.7071 24.2929C29.5196 24.1054 29.2652 24 29 24H13V2H49V40C48.2595 40.0022 47.5465 40.2803 47 40.78C46.4535 40.2803 45.7405 40.0022 45 40V40ZM58 57C57.9998 57.2652 57.8944 57.5194 57.7069 57.7069C57.5194 57.8944 57.2652 57.9998 57 58H49C48.7348 57.9998 48.4806 57.8944 48.2931 57.7069C48.1056 57.5194 48.0002 57.2652 48 57V55C48.0002 54.7348 48.1056 54.4806 48.2931 54.2931C48.4806 54.1056 48.7348 54.0002 49 54H57C57.2652 54.0002 57.5194 54.1056 57.7069 54.2931C57.8944 54.4806 57.9998 54.7348 58 55V57ZM58 51C57.9998 51.2652 57.8944 51.5194 57.7069 51.7069C57.5194 51.8944 57.2652 51.9998 57 52H49C48.7348 51.9998 48.4806 51.8944 48.2931 51.7069C48.1056 51.5194 48.0002 51.2652 48 51V49C48.0002 48.7348 48.1056 48.4806 48.2931 48.2931C48.4806 48.1056 48.7348 48.0002 49 48H57C57.2652 48.0002 57.5194 48.1056 57.7069 48.2931C57.8944 48.4806 57.9998 48.7348 58 49V51ZM58 45C57.9998 45.2652 57.8944 45.5194 57.7069 45.7069C57.5194 45.8944 57.2652 45.9998 57 46H49C48.7348 45.9998 48.4806 45.8944 48.2931 45.7069C48.1056 45.5194 48.0002 45.2652 48 45V43C48.0002 42.7348 48.1056 42.4806 48.2931 42.2931C48.4806 42.1056 48.7348 42.0002 49 42H57C57.2652 42.0002 57.5194 42.1056 57.7069 42.2931C57.8944 42.4806 57.9998 42.7348 58 43V45Z" fill="url(#paint4_linear_88_45)"/>
<defs>
<linearGradient id="paint0_linear_88_45" x1="31" y1="7" x2="31" y2="15" gradientUnits="userSpaceOnUse">
<stop offset="0.338542" stop-color="#015FCD"/>
<stop offset="1" stop-color="#0DD3F1"/>
</linearGradient>
<linearGradient id="paint1_linear_88_45" x1="32.5" y1="20" x2="32.5" y2="22" gradientUnits="userSpaceOnUse">
<stop offset="0.338542" stop-color="#015FCD"/>
<stop offset="1" stop-color="#0DD3F1"/>
</linearGradient>
<linearGradient id="paint2_linear_88_45" x1="15" y1="29" x2="15" y2="36" gradientUnits="userSpaceOnUse">
<stop offset="0.338542" stop-color="#015FCD"/>
<stop offset="1" stop-color="#0DD3F1"/>
</linearGradient>
<linearGradient id="paint3_linear_88_45" x1="15" y1="39" x2="15" y2="55" gradientUnits="userSpaceOnUse">
<stop offset="0.338542" stop-color="#015FCD"/>
<stop offset="1" stop-color="#0DD3F1"/>
</linearGradient>
<linearGradient id="paint4_linear_88_45" x1="30" y1="0" x2="30" y2="60" gradientUnits="userSpaceOnUse">
<stop offset="0.338542" stop-color="#015FCD"/>
<stop offset="1" stop-color="#0DD3F1"/>
</linearGradient>
</defs>
</svg>
