<svg width="124" height="119" viewBox="0 0 124 119" fill="none" xmlns="http://www.w3.org/2000/svg">
<path d="M4 102H0C0 111.4 7.6 119 17 119H124V15H19V0H17C7.6 0 0 7.6 0 17V102H4C4 94.8 9.8 89 17 89H19V19H120V115H17C9.8 115 4 109.2 4 102ZM15 85.1C10.6 85.6 6.7 87.8 4 91V17C4 10.5 8.8 5.1 15 4.2V85.1Z" fill="#3EBBC4"/>
<path d="M4 102H0C0 111.4 7.6 119 17 119H124V15H19V0H17C7.6 0 0 7.6 0 17V102H4C4 94.8 9.8 89 17 89H19V19H120V115H17C9.8 115 4 109.2 4 102ZM15 85.1C10.6 85.6 6.7 87.8 4 91V17C4 10.5 8.8 5.1 15 4.2V85.1Z" fill="url(#paint0_linear_88_134)"/>
<path d="M101 27H89V94.5L95 106.5L101 94.5V27ZM97 31V42H93V31H97ZM95 97.5L93 93.5V46H97V93.5L95 97.5Z" fill="#3EBBC4"/>
<path d="M101 27H89V94.5L95 106.5L101 94.5V27ZM97 31V42H93V31H97ZM95 97.5L93 93.5V46H97V93.5L95 97.5Z" fill="url(#paint1_linear_88_134)"/>
<path d="M40 75V79H48L43 106.7L46.9 107.4L52 79H64L69.1 107.4L73 106.7L68 79H76V75H67.3L65 61.8C68.1 59.6 70 55.9 70 52C70 46.1 65.7 41.1 60 40.2V27H56V40.2C50.3 41.2 46 46.1 46 52C46 55.9 47.9 59.5 51 61.8L48.7 75H40ZM54.2 59C51.6 57.6 50 54.9 50 52C50 47.6 53.6 44 58 44C62.4 44 66 47.6 66 52C66 54.9 64.4 57.6 61.8 59L60.5 59.7L63.3 75H52.7L55.4 59.7L54.2 59Z" fill="#3EBBC4"/>
<path d="M40 75V79H48L43 106.7L46.9 107.4L52 79H64L69.1 107.4L73 106.7L68 79H76V75H67.3L65 61.8C68.1 59.6 70 55.9 70 52C70 46.1 65.7 41.1 60 40.2V27H56V40.2C50.3 41.2 46 46.1 46 52C46 55.9 47.9 59.5 51 61.8L48.7 75H40ZM54.2 59C51.6 57.6 50 54.9 50 52C50 47.6 53.6 44 58 44C62.4 44 66 47.6 66 52C66 54.9 64.4 57.6 61.8 59L60.5 59.7L63.3 75H52.7L55.4 59.7L54.2 59Z" fill="url(#paint2_linear_88_134)"/>
<defs>
<linearGradient id="paint0_linear_88_134" x1="62" y1="0" x2="62" y2="119" gradientUnits="userSpaceOnUse">
<stop offset="0.338542" stop-color="#015FCD"/>
<stop offset="1" stop-color="#0DD3F1"/>
</linearGradient>
<linearGradient id="paint1_linear_88_134" x1="95" y1="27" x2="95" y2="106.5" gradientUnits="userSpaceOnUse">
<stop offset="0.338542" stop-color="#015FCD"/>
<stop offset="1" stop-color="#0DD3F1"/>
</linearGradient>
<linearGradient id="paint2_linear_88_134" x1="58" y1="27" x2="58" y2="107.4" gradientUnits="userSpaceOnUse">
<stop offset="0.338542" stop-color="#015FCD"/>
<stop offset="1" stop-color="#0DD3F1"/>
</linearGradient>
</defs>
</svg>
