<svg width="128" height="101" viewBox="0 0 128 101" fill="none" xmlns="http://www.w3.org/2000/svg">
<path d="M3.61991 100.02C3.11991 100.02 2.60991 99.89 2.13991 99.63C0.699907 98.81 0.199907 96.98 1.00991 95.54C6.22991 86.35 15.0399 79.47 25.1799 76.64C26.7799 76.19 28.4299 77.13 28.8799 78.72C29.3299 80.32 28.3899 81.97 26.7999 82.42C18.1799 84.82 10.6799 90.69 6.23991 98.5C5.67991 99.47 4.66991 100.02 3.61991 100.02Z" fill="black"/>
<path d="M3.61991 100.02C3.11991 100.02 2.60991 99.89 2.13991 99.63C0.699907 98.81 0.199907 96.98 1.00991 95.54C6.22991 86.35 15.0399 79.47 25.1799 76.64C26.7799 76.19 28.4299 77.13 28.8799 78.72C29.3299 80.32 28.3899 81.97 26.7999 82.42C18.1799 84.82 10.6799 90.69 6.23991 98.5C5.67991 99.47 4.66991 100.02 3.61991 100.02Z" fill="url(#paint0_linear_88_158)"/>
<path d="M124.38 100.02C123.34 100.02 122.32 99.47 121.77 98.5C117.33 90.68 109.83 84.82 101.21 82.42C99.6099 81.98 98.6799 80.32 99.1299 78.72C99.5699 77.12 101.23 76.19 102.83 76.64C112.97 79.47 121.78 86.35 127 95.54C127.82 96.98 127.31 98.81 125.87 99.63C125.39 99.89 124.88 100.02 124.38 100.02Z" fill="black"/>
<path d="M124.38 100.02C123.34 100.02 122.32 99.47 121.77 98.5C117.33 90.68 109.83 84.82 101.21 82.42C99.6099 81.98 98.6799 80.32 99.1299 78.72C99.5699 77.12 101.23 76.19 102.83 76.64C112.97 79.47 121.78 86.35 127 95.54C127.82 96.98 127.31 98.81 125.87 99.63C125.39 99.89 124.88 100.02 124.38 100.02Z" fill="url(#paint1_linear_88_158)"/>
<path d="M64 67C49.66 67 38 55.34 38 41C38 39.34 39.34 38 41 38C42.66 38 44 39.34 44 41C44 52.03 52.97 61 64 61C75.03 61 84 52.03 84 41C84 39.34 85.34 38 87 38C88.66 38 90 39.34 90 41C90 55.34 78.34 67 64 67Z" fill="black"/>
<path d="M64 67C49.66 67 38 55.34 38 41C38 39.34 39.34 38 41 38C42.66 38 44 39.34 44 41C44 52.03 52.97 61 64 61C75.03 61 84 52.03 84 41C84 39.34 85.34 38 87 38C88.66 38 90 39.34 90 41C90 55.34 78.34 67 64 67Z" fill="url(#paint2_linear_88_158)"/>
<path d="M90 32H38C36.34 32 35 30.66 35 29C35 13.01 48.01 0 64 0C79.99 0 93 13.01 93 29C93 30.66 91.66 32 90 32Z" fill="black"/>
<path d="M90 32H38C36.34 32 35 30.66 35 29C35 13.01 48.01 0 64 0C79.99 0 93 13.01 93 29C93 30.66 91.66 32 90 32Z" fill="url(#paint3_linear_88_158)"/>
<path d="M103.68 95.52C95.58 81.27 80.38 72.42 64 72.42C47.62 72.42 32.42 81.27 24.32 95.53C23.5 96.97 24.01 98.8 25.45 99.62C25.92 99.89 26.43 100.01 26.93 100.01L69 100V97C69 95.34 70.34 94 72 94H82C83.66 94 85 95.34 85 97V100H101.07C101.57 100 102.08 99.87 102.55 99.61C103.99 98.79 104.49 96.96 103.68 95.52Z" fill="black"/>
<path d="M103.68 95.52C95.58 81.27 80.38 72.42 64 72.42C47.62 72.42 32.42 81.27 24.32 95.53C23.5 96.97 24.01 98.8 25.45 99.62C25.92 99.89 26.43 100.01 26.93 100.01L69 100V97C69 95.34 70.34 94 72 94H82C83.66 94 85 95.34 85 97V100H101.07C101.57 100 102.08 99.87 102.55 99.61C103.99 98.79 104.49 96.96 103.68 95.52Z" fill="url(#paint4_linear_88_158)"/>
<path d="M101.58 15.02C100.07 14.34 98.2901 15.02 97.6201 16.53C96.9501 18.04 97.6201 19.82 99.1301 20.49C104.49 22.89 108.23 27.8 109.22 33.47H96.4701C94.8101 33.47 93.4701 34.81 93.4701 36.47C93.4701 38.13 94.8101 39.47 96.4701 39.47H103.31C105.34 42.02 106.47 45.18 106.47 48.47C106.47 56.45 99.9801 62.94 92.0001 62.94C91.1101 62.94 90.2301 62.86 89.3701 62.7C87.7401 62.4 86.1801 63.48 85.8801 65.11C85.5801 66.74 86.6601 68.3 88.2901 68.6C89.5101 68.82 90.7601 68.94 92.0101 68.94C103.3 68.94 112.48 59.76 112.48 48.47C112.48 45.32 111.76 42.25 110.4 39.47H112.48C114.14 39.47 115.48 38.13 115.48 36.47C115.47 27.22 110.01 18.8 101.58 15.02Z" fill="black"/>
<path d="M101.58 15.02C100.07 14.34 98.2901 15.02 97.6201 16.53C96.9501 18.04 97.6201 19.82 99.1301 20.49C104.49 22.89 108.23 27.8 109.22 33.47H96.4701C94.8101 33.47 93.4701 34.81 93.4701 36.47C93.4701 38.13 94.8101 39.47 96.4701 39.47H103.31C105.34 42.02 106.47 45.18 106.47 48.47C106.47 56.45 99.9801 62.94 92.0001 62.94C91.1101 62.94 90.2301 62.86 89.3701 62.7C87.7401 62.4 86.1801 63.48 85.8801 65.11C85.5801 66.74 86.6601 68.3 88.2901 68.6C89.5101 68.82 90.7601 68.94 92.0101 68.94C103.3 68.94 112.48 59.76 112.48 48.47C112.48 45.32 111.76 42.25 110.4 39.47H112.48C114.14 39.47 115.48 38.13 115.48 36.47C115.47 27.22 110.01 18.8 101.58 15.02Z" fill="url(#paint5_linear_88_158)"/>
<path d="M38.63 62.7C37.77 62.86 36.88 62.94 36 62.94C28.02 62.94 21.53 56.45 21.53 48.47C21.53 45.19 22.65 42.02 24.69 39.47H31.53C33.19 39.47 34.53 38.13 34.53 36.47C34.53 34.81 33.19 33.47 31.53 33.47H18.79C19.78 27.81 23.52 22.9 28.88 20.49C30.39 19.81 31.07 18.04 30.39 16.53C29.71 15.02 27.94 14.34 26.43 15.02C17.99 18.8 12.54 27.23 12.54 36.47C12.54 38.13 13.88 39.47 15.54 39.47H17.64C16.28 42.25 15.54 45.33 15.54 48.47C15.54 59.76 24.72 68.94 36.01 68.94C37.26 68.94 38.51 68.83 39.73 68.6C41.36 68.3 42.44 66.74 42.14 65.11C41.83 63.48 40.27 62.4 38.63 62.7Z" fill="black"/>
<path d="M38.63 62.7C37.77 62.86 36.88 62.94 36 62.94C28.02 62.94 21.53 56.45 21.53 48.47C21.53 45.19 22.65 42.02 24.69 39.47H31.53C33.19 39.47 34.53 38.13 34.53 36.47C34.53 34.81 33.19 33.47 31.53 33.47H18.79C19.78 27.81 23.52 22.9 28.88 20.49C30.39 19.81 31.07 18.04 30.39 16.53C29.71 15.02 27.94 14.34 26.43 15.02C17.99 18.8 12.54 27.23 12.54 36.47C12.54 38.13 13.88 39.47 15.54 39.47H17.64C16.28 42.25 15.54 45.33 15.54 48.47C15.54 59.76 24.72 68.94 36.01 68.94C37.26 68.94 38.51 68.83 39.73 68.6C41.36 68.3 42.44 66.74 42.14 65.11C41.83 63.48 40.27 62.4 38.63 62.7Z" fill="url(#paint6_linear_88_158)"/>
<defs>
<linearGradient id="paint0_linear_88_158" x1="14.8075" y1="76.5273" x2="14.8075" y2="100.02" gradientUnits="userSpaceOnUse">
<stop offset="0.338542" stop-color="#015FCD"/>
<stop offset="1" stop-color="#0DD3F1"/>
</linearGradient>
<linearGradient id="paint1_linear_88_158" x1="113.204" y1="76.5267" x2="113.204" y2="100.02" gradientUnits="userSpaceOnUse">
<stop offset="0.338542" stop-color="#015FCD"/>
<stop offset="1" stop-color="#0DD3F1"/>
</linearGradient>
<linearGradient id="paint2_linear_88_158" x1="64" y1="38" x2="64" y2="67" gradientUnits="userSpaceOnUse">
<stop offset="0.338542" stop-color="#015FCD"/>
<stop offset="1" stop-color="#0DD3F1"/>
</linearGradient>
<linearGradient id="paint3_linear_88_158" x1="64" y1="0" x2="64" y2="32" gradientUnits="userSpaceOnUse">
<stop offset="0.338542" stop-color="#015FCD"/>
<stop offset="1" stop-color="#0DD3F1"/>
</linearGradient>
<linearGradient id="paint4_linear_88_158" x1="63.9978" y1="72.42" x2="63.9978" y2="100.01" gradientUnits="userSpaceOnUse">
<stop offset="0.338542" stop-color="#015FCD"/>
<stop offset="1" stop-color="#0DD3F1"/>
</linearGradient>
<linearGradient id="paint5_linear_88_158" x1="100.655" y1="14.756" x2="100.655" y2="68.94" gradientUnits="userSpaceOnUse">
<stop offset="0.338542" stop-color="#015FCD"/>
<stop offset="1" stop-color="#0DD3F1"/>
</linearGradient>
<linearGradient id="paint6_linear_88_158" x1="27.3651" y1="14.756" x2="27.3651" y2="68.94" gradientUnits="userSpaceOnUse">
<stop offset="0.338542" stop-color="#015FCD"/>
<stop offset="1" stop-color="#0DD3F1"/>
</linearGradient>
</defs>
</svg>
