<svg width="486" height="456" viewBox="0 0 486 456" fill="none" xmlns="http://www.w3.org/2000/svg">
<path d="M121.304 60.8159H30.327C13.564 60.8159 0 74.4089 0 91.1409V424.727C0 441.487 13.564 455.049 30.327 455.049H121.305C138.067 455.049 151.629 441.487 151.629 424.727V91.1409C151.628 74.4089 138.066 60.8159 121.304 60.8159ZM45.49 364.073C37.108 364.073 30.327 357.292 30.327 348.905C30.327 340.528 37.108 333.747 45.49 333.747C53.87 333.747 60.651 340.528 60.651 348.905C60.651 357.292 53.87 364.073 45.49 364.073ZM121.304 182.118H30.327V151.794H121.305V182.118H121.304ZM121.304 121.467H30.327V91.1409H121.305V121.467H121.304Z" fill="black"/>
<path d="M121.304 60.8159H30.327C13.564 60.8159 0 74.4089 0 91.1409V424.727C0 441.487 13.564 455.049 30.327 455.049H121.305C138.067 455.049 151.629 441.487 151.629 424.727V91.1409C151.628 74.4089 138.066 60.8159 121.304 60.8159ZM45.49 364.073C37.108 364.073 30.327 357.292 30.327 348.905C30.327 340.528 37.108 333.747 45.49 333.747C53.87 333.747 60.651 340.528 60.651 348.905C60.651 357.292 53.87 364.073 45.49 364.073ZM121.304 182.118H30.327V151.794H121.305V182.118H121.304ZM121.304 121.467H30.327V91.1409H121.305V121.467H121.304Z" fill="url(#paint0_linear_88_4)"/>
<path d="M318.423 394.396V364.074H227.443V394.396C210.684 394.396 197.116 407.963 197.116 424.727H348.745C348.745 407.963 335.183 394.396 318.423 394.396Z" fill="black"/>
<path d="M318.423 394.396V364.074H227.443V394.396C210.684 394.396 197.116 407.963 197.116 424.727H348.745C348.745 407.963 335.183 394.396 318.423 394.396Z" fill="url(#paint1_linear_88_4)"/>
<path d="M454.889 0.162964H90.9779C74.2159 0.162964 60.6509 13.756 60.6509 30.49H90.9779H181.956H454.89V273.094H181.955V333.747H454.889C471.648 333.747 485.211 320.185 485.211 303.415V30.489C485.211 13.755 471.647 0.162964 454.889 0.162964ZM272.933 318.584C264.551 318.584 257.77 311.807 257.77 303.415C257.77 295.038 264.551 288.257 272.933 288.257C281.316 288.257 288.097 295.038 288.097 303.415C288.097 311.807 281.315 318.584 272.933 318.584Z" fill="black"/>
<path d="M454.889 0.162964H90.9779C74.2159 0.162964 60.6509 13.756 60.6509 30.49H90.9779H181.956H454.89V273.094H181.955V333.747H454.889C471.648 333.747 485.211 320.185 485.211 303.415V30.489C485.211 13.755 471.647 0.162964 454.889 0.162964ZM272.933 318.584C264.551 318.584 257.77 311.807 257.77 303.415C257.77 295.038 264.551 288.257 272.933 288.257C281.316 288.257 288.097 295.038 288.097 303.415C288.097 311.807 281.315 318.584 272.933 318.584Z" fill="url(#paint2_linear_88_4)"/>
<defs>
<linearGradient id="paint0_linear_88_4" x1="75.8145" y1="60.8159" x2="75.8145" y2="455.049" gradientUnits="userSpaceOnUse">
<stop offset="0.338542" stop-color="#015FCD"/>
<stop offset="1" stop-color="#0DD3F1"/>
</linearGradient>
<linearGradient id="paint1_linear_88_4" x1="272.93" y1="364.074" x2="272.93" y2="424.727" gradientUnits="userSpaceOnUse">
<stop offset="0.338542" stop-color="#015FCD"/>
<stop offset="1" stop-color="#0DD3F1"/>
</linearGradient>
<linearGradient id="paint2_linear_88_4" x1="272.931" y1="0.162964" x2="272.931" y2="333.747" gradientUnits="userSpaceOnUse">
<stop offset="0.338542" stop-color="#015FCD"/>
<stop offset="1" stop-color="#0DD3F1"/>
</linearGradient>
</defs>
</svg>
