<svg width="91" height="74" viewBox="0 0 91 74" fill="none" xmlns="http://www.w3.org/2000/svg">
<path d="M83.6126 0.841046L2.99079 31.0328C-0.253539 32.4387 -1.35089 35.2544 2.20649 36.7825L22.8896 43.1655L72.8983 13.1518C75.6287 11.2675 78.4242 11.77 76.0188 13.8427L33.0681 51.6084L31.7188 67.5909C32.9685 70.0587 35.2567 70.0701 36.7162 68.8436L48.5992 57.9245L68.9507 72.7239C73.6774 75.4415 76.2494 73.6877 77.2664 68.7069L90.6152 7.32459C92.0012 1.1934 89.6376 -1.50798 83.6126 0.841046Z" fill="black"/>
<path d="M83.6126 0.841046L2.99079 31.0328C-0.253539 32.4387 -1.35089 35.2544 2.20649 36.7825L22.8896 43.1655L72.8983 13.1518C75.6287 11.2675 78.4242 11.77 76.0188 13.8427L33.0681 51.6084L31.7188 67.5909C32.9685 70.0587 35.2567 70.0701 36.7162 68.8436L48.5992 57.9245L68.9507 72.7239C73.6774 75.4415 76.2494 73.6877 77.2664 68.7069L90.6152 7.32459C92.0012 1.1934 89.6376 -1.50798 83.6126 0.841046Z" fill="url(#paint0_linear_28_21)"/>
<defs>
<linearGradient id="paint0_linear_28_21" x1="45.5" y1="0" x2="45.5" y2="74" gradientUnits="userSpaceOnUse">
<stop offset="0.338542" stop-color="#015FCD"/>
<stop offset="1" stop-color="#0DD3F1"/>
</linearGradient>
</defs>
</svg>
